<?xml version="1.0" standalone="no"?>
<!DOCTYPE svg PUBLIC "-//W3C//DTD SVG 20010904//EN"
 "http://www.w3.org/TR/2001/REC-SVG-20010904/DTD/svg10.dtd">
<svg version="1.0" xmlns="http://www.w3.org/2000/svg"
 width="600.000000pt" height="600.000000pt" viewBox="0 0 600.000000 600.000000"
 preserveAspectRatio="xMidYMid meet">
<metadata>
Created by potrace 1.11, written by Peter Selinger 2001-2013
</metadata>
<g transform="translate(0.000000,600.000000) scale(0.100000,-0.100000)"
fill="#000000" stroke="none">
<path d="M2773 5980 c-13 -5 -23 -7 -23 -5 0 3 -28 -10 -62 -28 -88 -46 -122
-97 -124 -182 -2 -67 4 -115 15 -115 3 1 26 28 51 60 25 33 69 76 97 96 44 31
61 37 106 38 96 1 138 -52 111 -142 -28 -96 -119 -191 -311 -325 -29 -21 -55
-37 -57 -37 -10 0 -244 -134 -282 -162 -85 -61 -105 -142 -70 -280 12 -46 21
-90 21 -98 0 -8 -28 -33 -62 -55 -84 -55 -101 -72 -130 -129 -28 -56 -31 -127
-10 -236 12 -61 13 -140 3 -185 -2 -11 -5 -23 -5 -28 -2 -14 -75 -76 -118 -99
-51 -27 -62 -55 -56 -138 4 -58 18 -82 63 -100 17 -7 37 -30 53 -58 13 -26 84
-227 156 -447 73 -220 136 -409 141 -420 17 -39 23 -81 25 -166 2 -90 13 -124
44 -134 10 -3 30 -31 44 -63 14 -31 148 -424 297 -872 149 -448 278 -822 286
-832 20 -21 36 -15 51 20 14 32 202 593 213 637 5 17 63 192 129 390 67 198
135 401 151 450 69 210 81 238 120 267 34 25 43 55 46 163 2 68 11 105 58 245
31 91 76 226 101 300 161 494 175 528 226 522 25 -3 59 81 53 133 -4 41 -24
85 -39 85 -27 0 -141 66 -176 103 -46 46 -48 66 -14 139 52 114 36 255 -37
325 -18 17 -71 51 -118 75 -102 53 -109 70 -61 148 66 108 49 155 -128 348
-162 178 -238 310 -257 449 -22 162 -129 297 -269 338 -58 16 -215 20 -252 5z"/>
<path d="M1637 596 c-76 -28 -117 -87 -113 -164 4 -76 59 -123 191 -163 39
-12 82 -27 96 -35 29 -14 47 -55 41 -91 -4 -30 -57 -73 -90 -74 -84 -4 -115 1
-169 30 -31 17 -57 30 -58 28 0 -1 -9 -15 -19 -31 l-19 -29 28 -21 c47 -35 86
-44 183 -45 97 -1 146 14 184 55 56 63 51 180 -11 229 -31 25 -88 50 -132 60
-19 4 -57 18 -85 30 -41 18 -53 29 -58 52 -10 43 9 82 46 98 45 19 137 11 183
-16 20 -12 37 -20 39 -18 16 21 36 55 36 61 0 4 -21 17 -47 29 -61 28 -172 35
-226 15z"/>
<path d="M930 570 c0 -16 3 -29 8 -29 4 1 12 1 17 0 7 -1 10 -87 10 -243 0
-209 -2 -243 -15 -243 -9 0 -16 -11 -18 -27 l-3 -28 74 0 74 0 -1 27 c-1 18
-7 28 -16 28 -13 0 -15 34 -15 245 0 211 2 245 15 245 9 0 15 9 15 25 0 24 -3
25 -72 28 l-73 3 0 -31z"/>
<path d="M4956 588 c-6 -15 -34 -133 -40 -163 -2 -11 -16 -67 -31 -124 -14
-57 -24 -105 -22 -108 3 -2 20 -6 39 -9 34 -6 35 -5 45 32 6 22 27 91 48 154
68 213 65 199 47 209 -35 18 -82 23 -86 9z"/>
<path d="M2759 450 c-57 -10 -85 -24 -114 -58 l-23 -26 2 39 c1 37 -1 38 -31
40 -21 1 -33 -4 -35 -14 -2 -9 -3 -108 -2 -221 l1 -205 36 -3 37 -3 0 138 c0
133 1 141 25 173 29 40 65 61 115 69 31 6 34 10 38 44 2 20 2 36 0 36 -2 -1
-24 -5 -49 -9z"/>
<path d="M2174 431 c-79 -36 -119 -119 -112 -230 7 -85 27 -131 74 -167 33
-25 48 -29 117 -33 60 -2 88 1 118 14 21 10 39 20 39 22 0 3 -7 18 -17 33
l-16 28 -36 -19 c-70 -38 -156 -15 -187 49 -33 70 -17 192 29 231 35 28 106
30 151 3 l34 -20 20 28 c20 26 20 29 4 41 -55 45 -146 53 -218 20z"/>
<path d="M3013 432 c-70 -37 -104 -107 -104 -217 0 -95 36 -166 103 -201 52
-27 230 -11 251 23 3 4 -4 19 -14 32 -18 22 -22 23 -47 11 -99 -47 -198 -4
-216 94 -5 26 -4 26 57 27 187 2 242 5 240 14 0 6 -4 34 -8 64 -8 67 -17 89
-45 120 -48 50 -152 66 -217 33z m155 -77 c13 -12 25 -35 28 -52 6 -38 -1 -40
-124 -33 l-92 5 22 45 c36 70 113 87 166 35z"/>
<path d="M3498 438 c-39 -10 -44 -21 -32 -65 6 -20 8 -20 39 -7 28 11 94 19
132 15 22 -2 53 -44 53 -73 0 -27 -1 -28 -57 -29 -62 -1 -60 -1 -115 -13 -43
-9 -94 -56 -101 -92 -13 -69 13 -135 64 -161 34 -18 154 -16 189 2 27 14 30
14 30 0 0 -10 10 -15 33 -15 l33 0 -1 173 c-2 192 -9 222 -68 257 -36 22 -132
26 -199 8z m192 -230 c3 -4 5 -28 5 -54 -1 -59 -27 -82 -100 -90 -64 -8 -105
19 -105 70 0 39 21 61 70 74 40 10 122 10 130 0z"/>
<path d="M3954 442 c-6 -4 -10 -99 -10 -224 l0 -218 33 0 c19 0 34 5 34 13 1
6 2 77 4 157 1 80 3 152 3 161 3 22 68 52 111 51 72 -3 83 -36 82 -243 l-1
-139 35 0 c41 0 37 -18 37 186 -1 136 0 143 23 164 13 12 38 25 57 29 91 19
116 -17 117 -168 3 -213 1 -206 39 -209 l34 -3 -4 178 c-3 164 -5 181 -26 214
-12 20 -35 42 -51 49 -57 23 -154 5 -203 -38 -10 -8 -18 -10 -18 -4 0 6 -16
20 -35 32 -40 25 -121 26 -169 2 -21 -10 -31 -11 -36 -3 -8 14 -43 22 -56 13z"/>
<path d="M4809 80 c-18 -58 -18 -58 58 -75 30 -6 34 -4 44 22 22 57 21 70 -9
81 -71 29 -76 27 -93 -28z"/>
</g>
</svg>
