<?xml version="1.0" encoding="utf-8"?>
<!-- Generator: Adobe Illustrator 19.2.1, SVG Export Plug-In . SVG Version: 6.00 Build 0)  -->
<svg version="1.1" id="ABOUT_1_" xmlns="http://www.w3.org/2000/svg" xmlns:xlink="http://www.w3.org/1999/xlink" x="0px" y="0px"
	 viewBox="0 0 1440 780" style="enable-background:new 0 0 1440 780;" xml:space="preserve">
<g>
	<path d="M710,685.9c1.1,1.1,1.9,2.3,2.4,3.7s0.7,2.8,0.7,4.3s-0.4,2.9-1,4.3c-0.6,1.4-1.5,2.7-2.6,3.8L695,716.4l-30.2-30.1
		l14.4-14.3c1.1-1.1,2.3-1.8,3.6-2.2s2.7-0.6,4-0.5s2.6,0.5,3.9,1c1.3,0.6,2.3,1.3,3.3,2.3c1.5,1.5,2.5,3.3,3,5.4
		c0.5,2.1,0.3,4.1-0.5,6c2.3-1.3,4.6-1.7,7.1-1.3C706.1,683,708.2,684.1,710,685.9z M669.1,686l12.1,12l11.3-11.3
		c0.8-0.8,1.4-1.8,1.8-2.8c0.4-1,0.5-2.1,0.5-3.1c0-1.1-0.3-2.1-0.7-3.1s-1.1-1.9-1.8-2.7c-0.8-0.8-1.7-1.5-2.7-1.9s-2-0.7-3-0.8
		s-2,0.1-3,0.4c-1,0.3-1.9,0.9-2.7,1.7L669.1,686z M707.5,687.8c-0.8-0.8-1.7-1.4-2.8-1.9c-1-0.5-2.1-0.7-3.2-0.8s-2.2,0.1-3.2,0.5
		c-1.1,0.4-2,1-2.8,1.8L683,699.8l12.4,12.3l12.2-12.2c0.9-0.9,1.5-1.8,1.9-2.9c0.4-1.1,0.6-2.2,0.5-3.3c0-1.1-0.3-2.2-0.7-3.2
		C708.9,689.5,708.3,688.6,707.5,687.8z"/>
</g>
</svg>
