<?xml version="1.0" encoding="utf-8"?>
<!-- Generator: Adobe Illustrator 19.2.1, SVG Export Plug-In . SVG Version: 6.00 Build 0)  -->
<svg version="1.1" id="ABOUT_1_" xmlns="http://www.w3.org/2000/svg" xmlns:xlink="http://www.w3.org/1999/xlink" x="0px" y="0px"
	 viewBox="0 0 1440 780" style="enable-background:new 0 0 1440 780;" xml:space="preserve">
<g>
	<path d="M769.1,639.2c2.1-2.1,3.4-4.2,4.1-6.3c0.6-2.1,0.7-4.2,0.3-6.3c-0.4-2-1.3-4-2.5-5.9s-2.7-3.7-4.3-5.3l-15.2-15.1l2.2-2.2
		l15.2,15.1c2,2,3.7,4.2,5.1,6.4c1.4,2.3,2.3,4.6,2.7,7s0.2,4.8-0.6,7.3c-0.8,2.4-2.4,4.8-4.8,7.2c-2.5,2.5-5,4.1-7.5,4.9
		c-2.5,0.8-5,1-7.4,0.5c-2.4-0.4-4.8-1.3-7-2.7s-4.3-3-6.2-5L728,623.7l2.2-2.2l15.2,15.1c1.7,1.7,3.5,3.1,5.4,4.4s3.9,2.1,6,2.5
		s4.1,0.3,6.3-0.3C764.9,642.5,767,641.2,769.1,639.2z"/>
</g>
</svg>
