<?xml version="1.0" encoding="utf-8"?>
<!-- Generator: Adobe Illustrator 19.2.1, SVG Export Plug-In . SVG Version: 6.00 Build 0)  -->
<svg version="1.1" id="ABOUT_1_" xmlns="http://www.w3.org/2000/svg" xmlns:xlink="http://www.w3.org/1999/xlink" x="0px" y="0px"
	 viewBox="0 0 1440 780" style="enable-background:new 0 0 1440 780;" xml:space="preserve">
<style type="text/css">
	.st0{opacity:0.502;}
	.st1{fill-rule:evenodd;clip-rule:evenodd;fill:#08B2E0;}
</style>
<g id="ABOUT_2_">
	<g>
		<path d="M614.4,696.4l2.2-2.2l72.4,28.1l-2.7,2.7l-25-9.7L635.5,741l9.7,24.9l-2.8,2.7L614.4,696.4z M658.4,714l-39.8-15.6
			l15.5,39.8L658.4,714z"/>
		<path d="M710,685.9c1.1,1.1,1.9,2.3,2.4,3.7c0.5,1.4,0.7,2.8,0.7,4.3c0,1.5-0.4,2.9-1,4.3c-0.6,1.4-1.5,2.7-2.6,3.8l-14.5,14.4
			l-30.2-30.1l14.4-14.3c1.1-1.1,2.3-1.8,3.6-2.2c1.3-0.4,2.7-0.6,4-0.5c1.3,0.1,2.6,0.5,3.9,1c1.3,0.6,2.3,1.3,3.3,2.3
			c1.5,1.5,2.5,3.3,3,5.4c0.5,2.1,0.3,4.1-0.5,6c2.3-1.3,4.6-1.7,7.1-1.3C706.1,683,708.2,684.1,710,685.9z M669.1,686l12.1,12
			l11.3-11.3c0.8-0.8,1.4-1.8,1.8-2.8c0.4-1,0.5-2.1,0.5-3.1c0-1.1-0.3-2.1-0.7-3.1c-0.4-1-1.1-1.9-1.8-2.7
			c-0.8-0.8-1.7-1.5-2.7-1.9c-1-0.4-2-0.7-3-0.8c-1-0.1-2,0.1-3,0.4c-1,0.3-1.9,0.9-2.7,1.7L669.1,686z M707.5,687.8
			c-0.8-0.8-1.7-1.4-2.8-1.9c-1-0.5-2.1-0.7-3.2-0.8s-2.2,0.1-3.2,0.5c-1.1,0.4-2,1-2.8,1.8L683,699.8l12.4,12.3l12.2-12.2
			c0.9-0.9,1.5-1.8,1.9-2.9c0.4-1.1,0.6-2.2,0.5-3.3c0-1.1-0.3-2.2-0.7-3.2C708.9,689.5,708.3,688.6,707.5,687.8z"/>
		<path d="M737.3,674.7c-2.1,2.1-4.5,3.7-7.2,4.5c-2.6,0.9-5.3,1.3-8,1.1c-2.7-0.1-5.3-0.8-7.8-1.9c-2.5-1.1-4.8-2.7-6.7-4.6
			c-2-2-3.6-4.3-4.7-6.9c-1.1-2.6-1.7-5.2-1.8-7.9c-0.1-2.7,0.3-5.3,1.2-7.9c0.9-2.6,2.4-4.9,4.5-7c2.1-2.1,4.6-3.6,7.2-4.5
			s5.4-1.2,8.1-1.1c2.7,0.2,5.3,0.8,7.8,2c2.5,1.1,4.7,2.6,6.6,4.5c2,2,3.6,4.3,4.7,6.9c1.1,2.6,1.7,5.2,1.8,7.9s-0.3,5.3-1.2,7.9
			C740.9,670.4,739.4,672.7,737.3,674.7z M709.8,671.6c1.7,1.7,3.7,3.1,5.9,4.1c2.2,1,4.5,1.6,6.8,1.7c2.3,0.1,4.6-0.2,6.9-0.9
			c2.2-0.8,4.3-2,6.1-3.8c1.9-1.8,3.2-3.9,3.9-6.1c0.7-2.2,1-4.5,0.8-6.8c-0.2-2.3-0.8-4.5-1.8-6.7c-1-2.2-2.3-4.1-4-5.7
			c-1.7-1.7-3.7-3.1-5.9-4.1c-2.2-1-4.5-1.6-6.8-1.7c-2.3-0.1-4.6,0.2-6.8,0.9c-2.2,0.7-4.2,2-6,3.8c-1.9,1.8-3.2,3.9-3.9,6.2
			c-0.7,2.3-1,4.6-0.8,6.9c0.2,2.3,0.8,4.6,1.8,6.7C706.8,668.1,708.1,670,709.8,671.6z"/>
		<path d="M769.1,639.2c2.1-2.1,3.4-4.2,4.1-6.3c0.6-2.1,0.7-4.2,0.3-6.3c-0.4-2-1.3-4-2.5-5.9s-2.7-3.7-4.3-5.3l-15.2-15.1l2.2-2.2
			l15.2,15.1c2,2,3.7,4.2,5.1,6.4c1.4,2.3,2.3,4.6,2.7,7c0.4,2.4,0.2,4.8-0.6,7.3c-0.8,2.4-2.4,4.8-4.8,7.2c-2.5,2.5-5,4.1-7.5,4.9
			c-2.5,0.8-5,1-7.4,0.5c-2.4-0.4-4.8-1.3-7-2.7c-2.2-1.4-4.3-3-6.2-5l-15.2-15.1l2.2-2.2l15.2,15.1c1.7,1.7,3.5,3.1,5.4,4.4
			s3.9,2.1,6,2.5c2.1,0.4,4.1,0.3,6.3-0.3C764.9,642.5,767,641.2,769.1,639.2z"/>
		<path d="M785.7,570l-11.3,11.3l28.2,28.1l-2.2,2.2l-28.2-28.1l-11.3,11.3l-2-1.9l24.9-24.7L785.7,570z"/>
	</g>
</g>
<g id="シェイプ_1" class="st0">
	<g>
		<polygon class="st1" points="653.3,780 660.4,780 828.7,611.7 825.1,608.2 		"/>
	</g>
</g>
</svg>
