<?xml version="1.0" encoding="utf-8"?>
<!-- Generator: Adobe Illustrator 19.2.1, SVG Export Plug-In . SVG Version: 6.00 Build 0)  -->
<svg version="1.1" id="ABOUT_1_" xmlns="http://www.w3.org/2000/svg" xmlns:xlink="http://www.w3.org/1999/xlink" x="0px" y="0px"
	 viewBox="0 0 1440 780" style="enable-background:new 0 0 1440 780;" xml:space="preserve">
<g>
	<path d="M737.3,674.7c-2.1,2.1-4.5,3.7-7.2,4.5c-2.6,0.9-5.3,1.3-8,1.1c-2.7-0.1-5.3-0.8-7.8-1.9c-2.5-1.1-4.8-2.7-6.7-4.6
		c-2-2-3.6-4.3-4.7-6.9c-1.1-2.6-1.7-5.2-1.8-7.9s0.3-5.3,1.2-7.9c0.9-2.6,2.4-4.9,4.5-7s4.6-3.6,7.2-4.5s5.4-1.2,8.1-1.1
		c2.7,0.2,5.3,0.8,7.8,2c2.5,1.1,4.7,2.6,6.6,4.5c2,2,3.6,4.3,4.7,6.9c1.1,2.6,1.7,5.2,1.8,7.9s-0.3,5.3-1.2,7.9
		C740.9,670.4,739.4,672.7,737.3,674.7z M709.8,671.6c1.7,1.7,3.7,3.1,5.9,4.1s4.5,1.6,6.8,1.7c2.3,0.1,4.6-0.2,6.9-0.9
		c2.2-0.8,4.3-2,6.1-3.8c1.9-1.8,3.2-3.9,3.9-6.1c0.7-2.2,1-4.5,0.8-6.8s-0.8-4.5-1.8-6.7s-2.3-4.1-4-5.7c-1.7-1.7-3.7-3.1-5.9-4.1
		s-4.5-1.6-6.8-1.7c-2.3-0.1-4.6,0.2-6.8,0.9s-4.2,2-6,3.8c-1.9,1.8-3.2,3.9-3.9,6.2s-1,4.6-0.8,6.9c0.2,2.3,0.8,4.6,1.8,6.7
		C706.8,668.1,708.1,670,709.8,671.6z"/>
</g>
</svg>
