<?xml version="1.0" encoding="utf-8"?>
<!-- Generator: Adobe Illustrator 19.2.1, SVG Export Plug-In . SVG Version: 6.00 Build 0)  -->
<svg version="1.1" id="レイヤー_1" xmlns="http://www.w3.org/2000/svg" xmlns:xlink="http://www.w3.org/1999/xlink" x="0px"
	 y="0px" viewBox="0 0 872 162" style="enable-background:new 0 0 872 162;" xml:space="preserve">
<g>
	<g>
		<path d="M126,106.3c0-16.6-1.1-18.9-9.6-21.2c-1.7-0.4-5.3-0.6-7.3-0.6c-0.9,0-1.7-0.4-1.7-1.2c0-1.2,1.1-1.6,3.4-1.6
			c9.5,0,22.9,0.6,24,0.6s14.5-0.6,20.9-0.6c2.4,0,3.4,0.4,3.4,1.7c0,0.8-0.8,1.2-1.7,1.2c-1.4,0-2.7,0.2-5.3,0.6
			c-5.7,1-7.4,4.5-7.9,11.7c-0.4,6.6-0.4,12.8-0.4,21.4v23c0,9.3-0.2,9.7-2.8,11.1c-13.6,7-32.8,9.3-45.1,9.3
			c-16.2,0-46.4-2.1-69.9-22C13,128.8,0.7,106.8,0.7,81.1c0-32.9,16.6-56.2,35.5-67.7c19.1-11.5,40.2-13,56.5-13
			c13.4,0,28.5,2.7,32.6,3.5c4.4,1,11.9,1.9,17.2,2.1c2.2,0.2,2.6,1,2.6,1.8c0,2.9-1.5,8.7-1.5,29.2c0,3.3-0.4,4.3-1.9,4.3
			c-1,0-1.3-1.2-1.5-3.1c-0.3-2.9-1.3-8.6-4.5-13.6C130.4,16.8,113.2,8,85.7,8C72.3,8,56.4,9.2,40.2,21.6c-12.3,9.5-21,28.2-21,52.3
			c0,29,15.1,49.9,22.5,57c16.8,15.8,36.1,22,55.7,22c7.7,0,18.7-1.2,24.2-4.3c2.8-1.4,4.3-3.7,4.3-7.2v-35.1"/>
	</g>
</g>
</svg>
