<?xml version="1.0" encoding="utf-8"?>
<!-- Generator: Adobe Illustrator 19.2.1, SVG Export Plug-In . SVG Version: 6.00 Build 0)  -->
<svg version="1.1" id="レイヤー_1" xmlns="http://www.w3.org/2000/svg" xmlns:xlink="http://www.w3.org/1999/xlink" x="0px"
	 y="0px" viewBox="0 0 872 162" style="enable-background:new 0 0 872 162;" xml:space="preserve">
<path d="M359.9,93.5c0,22.1,0.3,31.2,3.2,33.9c2.5,2.5,8.5,3.5,20.7,3.5c8.1,0,15.1-0.2,18.8-4.6c1.9-2.3,3.2-5.5,3.7-8.5
	c0.2-1.1,0.7-1.9,1.6-1.9c0.7,0,1.1,0.7,1.1,2.3s-1.1,10.6-2.3,15.1c-1,3.5-1.6,4.1-9.9,4.1c-11.2,0-19.9-0.1-27.2-0.5
	c-7.1-0.2-12.4-0.3-17-0.3c-0.7,0-3.4,0-6.4,0.2c-3.2,0.2-6.5,0.3-9,0.3c-1.6,0-2.5-0.3-2.5-1.2c0-0.5,0.4-1.2,1.2-1.2
	c1.5,0,3.4-0.4,4.8-0.7c3-0.7,3.4-3.5,4.1-8c0.8-6.2,0.8-18.1,0.8-32.6V66.6c0-23.4,0-27.6-0.3-32.4c-0.3-5.1-1.2-7.6-6.4-8.3
	c-1.2-0.1-3.9-0.3-5.3-0.3c-0.5,0-1.3-0.7-1.3-1.3c0-0.9,0.7-1.2,2.4-1.2c7.2,0,16.9,0.3,17.8,0.3c0.7,0,12.4-0.3,17.2-0.3
	c1.6,0,2.5,0.3,2.5,1.2c0,0.5-0.7,1-1.2,1c-1.1,0-3.4,0.2-5.1,0.4c-4.6,0.9-5.5,3.2-5.8,8.5c-0.2,4.8-0.2,9-0.2,32.4L359.9,93.5"/>
</svg>
