<?xml version="1.0" encoding="utf-8"?>
<!-- Generator: Adobe Illustrator 19.2.1, SVG Export Plug-In . SVG Version: 6.00 Build 0)  -->
<svg version="1.1" id="レイヤー_1" xmlns="http://www.w3.org/2000/svg" xmlns:xlink="http://www.w3.org/1999/xlink" x="0px"
	 y="0px" viewBox="0 0 872 162" style="enable-background:new 0 0 872 162;" xml:space="preserve">
<path d="M215.4,67.9c0-23.1,0-27.3-0.4-32.1c-0.3-5.1-1.2-7.5-6.4-8.2c-1.2-0.2-3.9-0.3-5.3-0.3c-0.6,0-1.3-0.7-1.3-1.2
	c0-0.9,0.7-1.2,2.5-1.2c7.1,0,17.2,0.4,18.1,0.4c1.1,0,33.7,0.2,37.3,0c3-0.2,5.9-0.7,7.1-0.9c0.7-0.2,1.5-0.7,2.2-0.7
	c0.5,0,0.7,0.7,0.7,1.4c0,1-0.9,2.8-1.2,7c-0.1,1.4-0.6,8.1-0.9,9.8c-0.2,0.7-0.7,1.6-1.4,1.6c-0.9,0-1.2-0.7-1.2-1.9
	c0-1-0.2-3.5-0.9-5.3c-1.1-2.5-2.6-3.5-11.2-4.6c-2.6-0.3-20.7-0.5-22.5-0.5c-0.7,0-0.9,0.5-0.9,1.6v33.5c0,1,0,1.5,0.9,1.5
	c1.9,0,22.5,0,26-0.3c3.8-0.4,6.1-0.5,7.6-2.1c1.1-1.1,1.8-1.9,2.3-1.9s0.9,0.4,0.9,1.2c0,0.9-0.9,3.3-1.3,8.2
	c-0.3,2.9-0.7,8.6-0.7,9.6c0,1.2-0.4,2.8-1.4,2.8c-0.7,0-1-0.5-1-1.4c0-1.4,0-3-0.7-4.9c-0.5-2.1-1.9-3.8-8-4.6
	c-4.3-0.5-20.9-0.7-23.5-0.7c-0.9,0-1.1,0.5-1.1,1.1v19.5c0,5.1-0.2,22.4,0,25.4c0.3,10,3.2,11.9,18.6,11.9c4.1,0,11.5,0,15.6-1.6
	c4.1-1.7,6.2-4.3,7.2-10.3c0.3-1.8,0.6-2.3,1.6-2.3c0.9,0,1.1,1.2,1.1,2.3s-1.2,11.2-2.1,14.4c-1,3.9-2.7,3.9-8.7,3.9
	c-11.7,0-20.7-0.4-27.1-0.5c-6.6-0.3-10.6-0.3-13-0.3c-0.4,0-3.3,0-6.7,0.2c-3.1,0.2-6.6,0.3-9,0.3c-1.7,0-2.5-0.3-2.5-1.2
	c0-0.5,0.3-1.2,1.2-1.2c1.5,0,3.4-0.6,4.8-0.7c3-0.5,3.3-3.5,4.1-7.9c0.9-6.1,0.9-17.9,0.9-32.2V67.9"/>
</svg>
