<?xml version="1.0" encoding="utf-8"?>
<!-- Generator: Adobe Illustrator 19.2.1, SVG Export Plug-In . SVG Version: 6.00 Build 0)  -->
<svg version="1.1" id="レイヤー_1" xmlns="http://www.w3.org/2000/svg" xmlns:xlink="http://www.w3.org/1999/xlink" x="0px"
	 y="0px" viewBox="0 0 872 162" style="enable-background:new 0 0 872 162;" xml:space="preserve">
<path d="M667.1,95c0,14.3,0,26,0.7,32.1c0.5,4.4,1.2,7.2,6.1,7.8c2.1,0.4,5.6,0.7,7.1,0.7c1,0,1.2,0.7,1.2,1.2
	c0,0.7-0.7,1.2-2.5,1.2c-8.5,0-18.5-0.5-19.3-0.5c-0.7,0-11.5,0.5-16.1,0.5c-1.8,0-2.4-0.4-2.4-1.2c0-0.5,0.3-1,1.2-1
	c1.4,0,3.2-0.4,4.6-0.7c3.2-0.7,4-3.7,4.5-8C653,121,653,109.3,653,95V32.7l-22.5,0.4c-9.8,0.2-13.5,1.2-15.8,4.7
	c-1.8,2.6-1.9,3.7-2.5,4.7c-0.4,1.2-0.9,1.4-1.6,1.4c-0.4,0-1.1-0.4-1.1-1.2c0-1.6,3.2-14.8,3.4-16c0.3-0.9,1.1-2.8,1.6-2.8
	c1.1,0,2.6,1.2,6.9,1.8c4.4,0.5,10.5,0.7,12.2,0.7h58.9c5.1,0,8.7-0.4,11.2-0.7c2.3-0.4,3.7-0.7,4.5-0.7c0.7,0,0.7,0.9,0.7,1.7
	c0,4.5-0.5,15.2-0.5,16.9c0,1.2-0.7,1.9-1.4,1.9s-1-0.5-1.2-2.6l-0.2-1.6c-0.5-4.5-3.9-7.8-18.8-8.2l-19.5-0.4V95"/>
</svg>
