<?xml version="1.0" encoding="utf-8"?>
<!-- Generator: Adobe Illustrator 19.2.1, SVG Export Plug-In . SVG Version: 6.00 Build 0)  -->
<svg version="1.1" id="レイヤー_1" xmlns="http://www.w3.org/2000/svg" xmlns:xlink="http://www.w3.org/1999/xlink" x="0px"
	 y="0px" viewBox="0 0 960 220" style="enable-background:new 0 0 960 220;" xml:space="preserve">
<style type="text/css">
	.st0{fill:#FFFFFF;}
</style>
<g>
	<g>
		<path class="st0" d="M170,135.3c0-16.6-1.1-18.9-9.6-21.2c-1.7-0.4-5.3-0.6-7.3-0.6c-0.9,0-1.7-0.4-1.7-1.2c0-1.2,1.1-1.6,3.4-1.6
			c9.5,0,22.9,0.6,24,0.6c1.1,0,14.5-0.6,20.9-0.6c2.4,0,3.4,0.4,3.4,1.7c0,0.8-0.8,1.2-1.7,1.2c-1.4,0-2.7,0.2-5.3,0.6
			c-5.7,1-7.4,4.5-7.9,11.7c-0.4,6.6-0.4,12.8-0.4,21.4v23c0,9.3-0.2,9.7-2.8,11.1c-13.6,7-32.8,9.3-45.1,9.3
			c-16.2,0-46.4-2.1-69.9-22c-13-10.9-25.3-32.9-25.3-58.6c0-32.9,16.6-56.2,35.5-67.7c19.1-11.5,40.2-13,56.5-13
			c13.4,0,28.5,2.7,32.6,3.5c4.4,1,11.9,1.9,17.2,2.1c2.2,0.2,2.6,1,2.6,1.8c0,2.9-1.5,8.7-1.5,29.2c0,3.3-0.4,4.3-1.9,4.3
			c-1,0-1.3-1.2-1.5-3.1c-0.3-2.9-1.3-8.6-4.5-13.6c-5.3-7.8-22.5-16.6-50-16.6c-13.4,0-29.3,1.2-45.5,13.6
			c-12.3,9.5-21,28.2-21,52.3c0,29,15.1,49.9,22.5,57c16.8,15.8,36.1,22,55.7,22c7.7,0,18.7-1.2,24.2-4.3c2.8-1.4,4.3-3.7,4.3-7.2
			V135.3"/>
		<path class="st0" d="M856.2,53.8c-32.6,0-59,25.6-59,57.1c0,31.5,26.4,57.1,59,57.1c32.6,0,59-25.6,59-57.1
			C915.3,79.4,888.9,53.8,856.2,53.8 M856.2,163.5c-23.3,0-42.2-23.5-42.2-52.6c0-29.1,18.9-52.6,42.2-52.6
			c23.3,0,42.2,23.5,42.2,52.6C898.5,140,879.6,163.5,856.2,163.5"/>
		<path class="st0" d="M259.4,96.9c0-23.1,0-27.3-0.4-32.1c-0.3-5.1-1.2-7.5-6.4-8.2c-1.2-0.2-3.9-0.3-5.3-0.3
			c-0.6,0-1.3-0.7-1.3-1.2c0-0.9,0.7-1.2,2.5-1.2c7.1,0,17.2,0.4,18.1,0.4c1.1,0,33.7,0.2,37.3,0c3-0.2,5.9-0.7,7.1-0.9
			c0.7-0.2,1.5-0.7,2.2-0.7c0.5,0,0.7,0.7,0.7,1.4c0,1-0.9,2.8-1.2,7c-0.1,1.4-0.6,8.1-0.9,9.8c-0.2,0.7-0.7,1.6-1.4,1.6
			c-0.9,0-1.2-0.7-1.2-1.9c0-1-0.2-3.5-0.9-5.3c-1.1-2.5-2.6-3.5-11.2-4.6c-2.6-0.3-20.7-0.5-22.5-0.5c-0.7,0-0.9,0.5-0.9,1.6v33.5
			c0,1,0,1.5,0.9,1.5c1.9,0,22.5,0,26-0.3c3.8-0.4,6.1-0.5,7.6-2.1c1.1-1.1,1.8-1.9,2.3-1.9c0.5,0,0.9,0.4,0.9,1.2
			c0,0.9-0.9,3.3-1.3,8.2c-0.3,2.9-0.7,8.6-0.7,9.6c0,1.2-0.4,2.8-1.4,2.8c-0.7,0-1-0.5-1-1.4c0-1.4,0-3-0.7-4.9
			c-0.5-2.1-1.9-3.8-8-4.6c-4.3-0.5-20.9-0.7-23.5-0.7c-0.9,0-1.1,0.5-1.1,1.1v19.5c0,5.1-0.2,22.4,0,25.4
			c0.3,10,3.2,11.9,18.6,11.9c4.1,0,11.5,0,15.6-1.6c4.1-1.7,6.2-4.3,7.2-10.3c0.3-1.8,0.6-2.3,1.6-2.3c0.9,0,1.1,1.2,1.1,2.3
			c0,1.1-1.2,11.2-2.1,14.4c-1,3.9-2.7,3.9-8.7,3.9c-11.7,0-20.7-0.4-27.1-0.5c-6.6-0.3-10.6-0.3-13-0.3c-0.4,0-3.3,0-6.7,0.2
			c-3.1,0.2-6.6,0.3-9,0.3c-1.7,0-2.5-0.3-2.5-1.2c0-0.5,0.3-1.2,1.2-1.2c1.5,0,3.4-0.6,4.8-0.7c3-0.5,3.3-3.5,4.1-7.9
			c0.9-6.1,0.9-17.9,0.9-32.2V96.9"/>
		<path class="st0" d="M403.9,122.5c0,22.1,0.3,31.2,3.2,33.9c2.5,2.5,8.5,3.5,20.7,3.5c8.1,0,15.1-0.2,18.8-4.6
			c1.9-2.3,3.2-5.5,3.7-8.5c0.2-1.1,0.7-1.9,1.6-1.9c0.7,0,1.1,0.7,1.1,2.3c0,1.6-1.1,10.6-2.3,15.1c-1,3.5-1.6,4.1-9.9,4.1
			c-11.2,0-19.9-0.1-27.2-0.5c-7.1-0.2-12.4-0.3-17-0.3c-0.7,0-3.4,0-6.4,0.2c-3.2,0.2-6.5,0.3-9,0.3c-1.6,0-2.5-0.3-2.5-1.2
			c0-0.5,0.4-1.2,1.2-1.2c1.5,0,3.4-0.4,4.8-0.7c3-0.7,3.4-3.5,4.1-8c0.8-6.2,0.8-18.1,0.8-32.6V95.6c0-23.4,0-27.6-0.3-32.4
			c-0.3-5.1-1.2-7.6-6.4-8.3c-1.2-0.1-3.9-0.3-5.3-0.3c-0.5,0-1.3-0.7-1.3-1.3c0-0.9,0.7-1.2,2.4-1.2c7.2,0,16.9,0.3,17.8,0.3
			c0.7,0,12.4-0.3,17.2-0.3c1.6,0,2.5,0.3,2.5,1.2c0,0.5-0.7,1-1.2,1c-1.1,0-3.4,0.2-5.1,0.4c-4.6,0.9-5.5,3.2-5.8,8.5
			c-0.2,4.8-0.2,9-0.2,32.4V122.5"/>
		<path class="st0" d="M554.8,58.9c1.9-4.8,2.6-5.7,3.7-5.7c1.6,0,2.1,2.1,3.7,5.4c2.8,6.2,27.9,67.1,37.4,89.4
			c5.7,13.2,9.9,15.1,13.3,16.1c2.3,0.7,4.6,0.9,6.2,0.9c0.9,0,2,0.4,2,1.2c0,0.9-1.8,1.2-3.6,1.2c-2.3,0-13.8,0-24.6-0.3
			c-3-0.2-5.5-0.2-5.5-1.1c0-0.7,0.4-0.7,1.1-1.1c0.9-0.3,2.5-1.5,1.4-4l-14.1-33.8c-0.4-0.7-0.5-0.9-1.4-0.9h-36
			c-0.7,0-1.3,0.4-1.6,1.2l-8.8,23.6c-1.4,3.7-2.3,7.3-2.3,9.9c0,2.9,2.7,4,5.3,4h1.4c1.3,0,1.6,0.5,1.6,1.2c0,0.9-0.9,1.2-2.3,1.2
			c-3.7,0-12.2-0.5-14-0.5c-1.6,0-9.4,0.5-15.8,0.5c-2,0-3-0.3-3-1.2c0-0.7,0.7-1.2,1.4-1.2c1.1,0,3.4-0.1,4.6-0.3
			c7.1-0.9,10.1-6.1,13.1-13.6L554.8,58.9 M572.2,120.3c0.7,0,0.7-0.3,0.5-1l-15.4-40.4c-0.8-2.3-1.7-2.3-2.6,0l-14.5,40.4
			c-0.2,0.7,0,1,0.5,1H572.2z"/>
		<path class="st0" d="M711.1,124c0,14.3,0,26,0.7,32.1c0.5,4.4,1.2,7.2,6.1,7.8c2.1,0.4,5.6,0.7,7.1,0.7c1,0,1.2,0.7,1.2,1.2
			c0,0.7-0.7,1.2-2.5,1.2c-8.5,0-18.5-0.5-19.3-0.5c-0.7,0-11.5,0.5-16.1,0.5c-1.8,0-2.4-0.4-2.4-1.2c0-0.5,0.3-1,1.2-1
			c1.4,0,3.2-0.4,4.6-0.7c3.2-0.7,4-3.7,4.5-8c0.8-6.1,0.8-17.8,0.8-32.1V61.7l-22.5,0.4c-9.8,0.2-13.5,1.2-15.8,4.7
			c-1.8,2.6-1.9,3.7-2.5,4.7c-0.4,1.2-0.9,1.4-1.6,1.4c-0.4,0-1.1-0.4-1.1-1.2c0-1.6,3.2-14.8,3.4-16c0.3-0.9,1.1-2.8,1.6-2.8
			c1.1,0,2.6,1.2,6.9,1.8c4.4,0.5,10.5,0.7,12.2,0.7h58.9c5.1,0,8.7-0.4,11.2-0.7c2.3-0.4,3.7-0.7,4.5-0.7c0.7,0,0.7,0.9,0.7,1.7
			c0,4.5-0.5,15.2-0.5,16.9c0,1.2-0.7,1.9-1.4,1.9c-0.7,0-1-0.5-1.2-2.6l-0.2-1.6c-0.5-4.5-3.9-7.8-18.8-8.2l-19.5-0.4V124"/>
	</g>
</g>
</svg>
