<?xml version="1.0" encoding="utf-8"?>
<!-- Generator: Adobe Illustrator 19.2.1, SVG Export Plug-In . SVG Version: 6.00 Build 0)  -->
<svg version="1.1" id="レイヤー_1" xmlns="http://www.w3.org/2000/svg" xmlns:xlink="http://www.w3.org/1999/xlink" x="0px"
	 y="0px" viewBox="0 0 65 95" style="enable-background:new 0 0 65 95;" xml:space="preserve">
<style type="text/css">
	.st0{clip-path:url(#SVGID_2_);}
	.st1{fill:#ED3D3D;}
	.st2{fill:#F39800;}
	.st3{fill:#FFD400;}
	.st4{fill:#008000;}
	.st5{fill:#AFDFE4;}
	.st6{fill:#0067BF;}
	.st7{fill:#A757A8;}
</style>
<g>
	<path d="M3.5,92.8H1.3V92h0.5v-7.4H1.3v-0.8h2.2v0.8H2.9V92h0.6V92.8z M15.5,85.4c-0.8-0.6-1.4-0.8-2.3-0.8c-1.2,0-1.8,0.5-1.8,1.4
		c0,0.8,0.4,1.1,2.3,1.6c1.9,0.5,2.7,1.3,2.7,2.7c0,1.6-1.3,2.6-3.3,2.6c-1.3,0-2.2-0.3-3.2-1.1l0.6-1c0.9,0.7,1.7,1,2.7,1
		c1.3,0,2-0.6,2-1.5c0-0.9-0.4-1.2-2.1-1.6c-2.1-0.6-3-1.3-3-2.6c0-1.5,1.2-2.5,3.1-2.5c1.1,0,1.9,0.2,2.7,0.8L15.5,85.4L15.5,85.4z
		 M23.7,92.2c-0.7,0.5-1.3,0.7-2.1,0.7c-1,0-1.9-0.3-2.4-0.9c-0.5-0.6-0.8-1.5-0.8-2.5c0-2.2,1.2-3.5,3.2-3.5c0.9,0,1.3,0.2,2.1,0.8
		L23,87.6C22.5,87.2,22,87,21.5,87c-1.3,0-2,0.9-2,2.5c0,1.6,0.7,2.5,2,2.5c0.6,0,1.1-0.2,1.6-0.6L23.7,92.2L23.7,92.2z M29.6,87
		c-0.1,0-0.2,0-0.3,0c-1,0-1.8,0.6-2.3,1.7v4.1h-1.1v-6.7h1v1.2c0.6-1,1.3-1.4,2.4-1.4c0.2,0,0.2,0,0.4,0L29.6,87z M32.3,89.7
		c0.1,0.6,0.1,0.9,0.3,1.2c0.3,0.6,0.9,0.9,1.8,0.9c0.7,0,1.1-0.2,1.7-0.6l0.6,0.9c-0.7,0.5-1.3,0.7-2.3,0.7c-2,0-3.2-1.2-3.2-3.4
		c0-2.2,1.1-3.5,3-3.5c1.3,0,2.1,0.6,2.5,1.8c0.1,0.5,0.2,1,0.2,1.9L32.3,89.7L32.3,89.7z M35.7,88.7c-0.1-1.3-0.6-1.8-1.6-1.8
		c-1,0-1.5,0.5-1.7,1.8H35.7z M39.5,86.4c0.8-0.3,1.5-0.4,2.3-0.4c1.7,0,2.4,0.8,2.4,2.7v4.1h-1v-0.5c-0.6,0.5-1.1,0.6-1.9,0.6
		c-1.5,0-2.4-0.8-2.4-2.1c0-1.5,1.2-2.2,3.5-2.2h0.7c0-1.2-0.4-1.6-1.4-1.6c-0.7,0-1.3,0.2-2,0.5L39.5,86.4L39.5,86.4z M43.1,89.5
		h-0.7c-1.7,0-2.4,0.4-2.4,1.2c0,0.7,0.5,1.1,1.3,1.1c0.7,0,1.2-0.2,1.8-0.6L43.1,89.5L43.1,89.5z M47.9,86.6
		c0.6-0.5,1.1-0.6,1.9-0.6c0.9,0,1.5,0.3,1.8,0.9c0.7-0.7,1.4-0.9,2.3-0.9c1.5,0,2.2,0.9,2.2,2.9v3.9H55v-3.9c0-1.4-0.4-1.9-1.3-1.9
		c-0.7,0-1.2,0.3-1.8,0.9c0.1,0.3,0.1,0.6,0.1,1v3.9h-1.1v-3.9c0-1.3-0.4-1.9-1.3-1.9c-0.7,0-1.2,0.2-1.7,0.8v5.1h-1.1v-6.7h1
		L47.9,86.6L47.9,86.6z M61.4,92.8l-1.6-0.5l0.4-1.6l1.6,0.5L61.4,92.8z M63.7,84.1l-1.9,6.1l-1.1-0.3l1.5-6.2L63.7,84.1z"/>
	<g>
		<g>
			<defs>
				<path id="SVGID_1_" d="M48.8,34.7c0.4,0,0.8-0.7,0.8-1.6s-0.3-1.6-0.7-1.6s-1.4-0.5-2.2-1.1c0,0-1.5-1.1-0.8-2.1
					c0.6-1,1.3-3.8-0.4-5.5c-1.9-1.8-4.3-1-2.4-3.7c1.9-2.7-5.2-5.7-6-11.5c-0.9-5.8-6-6-8.6-5.1c-2.6,1-2.6,2.7-2.4,4.3
					c0.2,1.6,1.3-2.3,3.9-2.5c2.6-0.2,2.8,2.5-0.4,5.3c-3.2,2.7-3.9,2.5-7.3,4.7c-3.4,2.2,0,5.9-1.3,6.4c-4.1,1.9-2.8,4.5-2.6,6.8
					c0.2,2.1-0.5,2.7-0.5,2.7c-0.8,0.7-1.6,1.2-1.9,1.2c-0.3,0-0.5,0.7-0.5,1.6s0.4,1.6,0.8,1.6c0.4,0,1.1,0.8,1.4,1.8l3.9,11.8
					c0.3,1,0.6,1.8,0.6,1.8s0,0.7,0,1.6s0.3,1.6,0.6,1.6c0.3,0,0.8,0.8,1.1,1.8l0,0.1c0.3,1,0.9,2.6,1.2,3.6l6.9,20.8
					c0.3,1,0.9,1,1.2,0L40,58.8c0.3-1,0.9-2.6,1.2-3.6l0-0.1c0.3-1,0.8-1.8,1.1-1.8c0.3,0,0.5-0.7,0.5-1.6s0-1.6,0-1.6
					c0,0,0.3-0.8,0.6-1.8l3.9-11.8C47.7,35.5,48.4,34.7,48.8,34.7"/>
			</defs>
			<clipPath id="SVGID_2_">
				<use xlink:href="#SVGID_1_"  style="overflow:visible;"/>
			</clipPath>
			<g class="st0">
				<path class="st1" d="M-8.1,0.8h81.2v11.6H-8.1L-8.1,0.8z"/>
				<path class="st2" d="M-8.1,12.4h81.2V24H-8.1L-8.1,12.4z"/>
				<path class="st3" d="M-8.1,24h81.2v11.6H-8.1L-8.1,24z"/>
				<path class="st4" d="M-8.1,35.6h81.2v11.6H-8.1L-8.1,35.6z"/>
				<path class="st5" d="M-8.1,47.1h81.2v11.6H-8.1L-8.1,47.1z"/>
				<path class="st6" d="M-8.1,58.7h81.2v11.6H-8.1L-8.1,58.7z"/>
				<path class="st7" d="M-8.1,70.3h81.2v11.6H-8.1L-8.1,70.3z"/>
			</g>
		</g>
	</g>
</g>
</svg>
