<?xml version="1.0" encoding="utf-8"?>
<!-- Generator: Adobe Illustrator 19.2.1, SVG Export Plug-In . SVG Version: 6.00 Build 0)  -->
<svg version="1.1" id="レイヤー_1" xmlns="http://www.w3.org/2000/svg" xmlns:xlink="http://www.w3.org/1999/xlink" x="0px"
	 y="0px" viewBox="0 0 1441.9 93.7" style="enable-background:new 0 0 1441.9 93.7;" xml:space="preserve">
<style type="text/css">
	.st0{display:none;clip-path:url(#SVGID_2_);}
	.st1{display:inline;}
	.st2{display:inline;clip-path:url(#SVGID_4_);fill:url(#SVGID_5_);}
	.st3{display:inline;clip-path:url(#SVGID_7_);fill:url(#SVGID_8_);}
	.st4{display:inline;clip-path:url(#SVGID_10_);fill:url(#SVGID_11_);}
	.st5{display:inline;clip-path:url(#SVGID_13_);fill:url(#SVGID_14_);}
	.st6{clip-path:url(#SVGID_2_);}
	.st7{clip-path:url(#SVGID_16_);fill:url(#SVGID_17_);}
	.st8{clip-path:url(#SVGID_19_);fill:url(#SVGID_20_);}
	.st9{clip-path:url(#SVGID_22_);}
	.st10{clip-path:url(#SVGID_24_);fill:url(#SVGID_25_);}
	.st11{clip-path:url(#SVGID_27_);}
	.st12{clip-path:url(#SVGID_29_);fill:url(#SVGID_30_);}
</style>
<g>
	<g>
		<defs>
			<rect id="SVGID_1_" y="-5.5" width="1441.9" height="124"/>
		</defs>
		<clipPath id="SVGID_2_">
			<use xlink:href="#SVGID_1_"  style="overflow:visible;"/>
		</clipPath>
		<g class="st0">
			<defs>
				<path id="SVGID_3_" d="M156.7,59.8c-53.9,0-106.3,0.8-156.7,2.6V108h1441.9V95.3c-177.7,9.3-426.9-3.4-689.3-16.1
					C553.1,69.5,346.1,59.8,156.7,59.8C156.7,59.8,156.7,59.8,156.7,59.8"/>
			</defs>
			<clipPath id="SVGID_4_" class="st1">
				<use xlink:href="#SVGID_3_"  style="overflow:visible;"/>
			</clipPath>
			
				<linearGradient id="SVGID_5_" gradientUnits="userSpaceOnUse" x1="317.5063" y1="677.7938" x2="319.6878" y2="677.7938" gradientTransform="matrix(34.7189 217.7768 -217.7768 34.7189 137261.5156 -92867.8984)">
				<stop  offset="0" style="stop-color:#FFFFFF"/>
				<stop  offset="1" style="stop-color:#009FE8"/>
			</linearGradient>
			<polygon class="st2" points="-58.8,61 35.7,136.6 1500.7,106.8 1406.2,31.3 			"/>
		</g>
		<g class="st0">
			<defs>
				<path id="SVGID_6_" d="M156.7,59.8c-53.9,0-106.3,0.8-156.7,2.6V108h1441.9V95.3c-177.7,9.3-426.9-3.4-689.3-16.1
					C553.1,69.5,346.1,59.8,156.7,59.8C156.7,59.8,156.7,59.8,156.7,59.8"/>
			</defs>
			<clipPath id="SVGID_7_" class="st1">
				<use xlink:href="#SVGID_6_"  style="overflow:visible;"/>
			</clipPath>
			
				<linearGradient id="SVGID_8_" gradientUnits="userSpaceOnUse" x1="318.8611" y1="677.7286" x2="323.5815" y2="677.7286" gradientTransform="matrix(365.4216 92.0127 -92.0127 365.4216 -54283.4961 -277124.9062)">
				<stop  offset="0" style="stop-color:#FFFFFF"/>
				<stop  offset="1" style="stop-color:#009FE8"/>
			</linearGradient>
			<polygon class="st3" points="-89.6,105.1 1355.9,151.5 1531.5,62.7 86,16.3 			"/>
		</g>
		<g class="st0">
			<defs>
				<path id="SVGID_9_" d="M156.7,59.8c-50,0-98.9,0.7-146,2.2c0,0-0.1,0-0.2,0c-0.3,0-0.7,0-1,0c-0.1,0-0.1,0-0.2,0
					c-0.4,0-0.8,0-1.1,0c0,0-0.1,0-0.1,0c-0.3,0-0.7,0-1,0c-0.1,0-0.2,0-0.4,0c-0.2,0-0.5,0-0.7,0c-0.1,0-0.3,0-0.4,0
					c-0.2,0-0.5,0-0.7,0c-0.2,0-0.4,0-0.5,0c-0.3,0-0.6,0-0.8,0c-0.2,0-0.4,0-0.5,0c-0.2,0-0.3,0-0.5,0c-0.2,0-0.4,0-0.6,0
					c-0.1,0-0.3,0-0.4,0c-0.2,0-0.4,0-0.7,0c-0.1,0-0.1,0-0.2,0c-0.3,0-0.6,0-0.8,0v56.2h1441.9V95.3c-4.5,0.2-9.1,0.5-13.7,0.7
					c0,0,0,0,0,0c-0.3,0-0.5,0-0.8,0c0,0-0.1,0-0.2,0c-0.2,0-0.5,0-0.7,0c-0.1,0-0.2,0-0.3,0c-0.2,0-0.4,0-0.6,0c-0.2,0-0.3,0-0.5,0
					c-0.2,0-0.4,0-0.6,0c-0.3,0-0.5,0-0.8,0c-0.1,0-0.2,0-0.3,0c-0.2,0-0.5,0-0.7,0c-0.1,0-0.2,0-0.2,0c-0.3,0-0.5,0-0.8,0
					c-0.1,0-0.1,0-0.2,0c-167.5,7-392.9-3.7-631.7-15.3c-1,0-2-0.1-3-0.1c-0.3,0-0.6,0-0.9,0c-8.6-0.4-17.3-0.8-26-1.3
					c-0.2,0-0.4,0-0.7,0c-0.6,0-1.2-0.1-1.8-0.1c-0.3,0-0.7,0-1,0c-0.4,0-0.7,0-1-0.1c-0.2,0-0.4,0-0.6,0c-0.8,0-1.5-0.1-2.2-0.1
					c-0.6,0-1.2-0.1-1.8-0.1c-185.6-9-377.8-18-556-19.1C182,59.9,169.3,59.8,156.7,59.8C156.7,59.8,156.7,59.8,156.7,59.8"/>
			</defs>
			<clipPath id="SVGID_10_" class="st1">
				<use xlink:href="#SVGID_9_"  style="overflow:visible;"/>
			</clipPath>
			
				<linearGradient id="SVGID_11_" gradientUnits="userSpaceOnUse" x1="313.5674" y1="677.8472" x2="315.8406" y2="677.8472" gradientTransform="matrix(-17.8123 89.0618 -89.0618 -17.8123 66692.7188 -15844.2676)">
				<stop  offset="0" style="stop-color:#FFFFFF"/>
				<stop  offset="1" style="stop-color:#009FE8"/>
			</linearGradient>
			<polygon class="st4" points="55.5,24.5 -88.7,116.3 1386.4,153.9 1530.5,62.1 			"/>
		</g>
		<g class="st0">
			<defs>
				<path id="SVGID_12_" d="M0,89.1v29.5h1441.9v-13.8c-178.1,5.9-427.9-0.9-690.9-7.6c-192.3-4.9-391.6-9.9-575.3-9.9
					C115.2,87.3,56.3,87.8,0,89.1"/>
			</defs>
			<clipPath id="SVGID_13_" class="st1">
				<use xlink:href="#SVGID_12_"  style="overflow:visible;"/>
			</clipPath>
			
				<linearGradient id="SVGID_14_" gradientUnits="userSpaceOnUse" x1="318.2823" y1="680.6021" x2="322.8216" y2="680.6021" gradientTransform="matrix(-425.241 -21.5615 21.5615 -425.241 122282.3125 296430.5625)">
				<stop  offset="0" style="stop-color:#FFFFFF"/>
				<stop  offset="1" style="stop-color:#009FE8"/>
			</linearGradient>
			<polygon class="st5" points="1454.3,87.4 3.7,78 -12.4,118.5 1438.2,127.8 			"/>
		</g>
		<g class="st6">
			<defs>
				<path id="SVGID_15_" d="M11.7,0.2C11.7,0.2,11.7,0.2,11.7,0.2c-0.4,0-0.7,0-1,0c0,0,0,0,0,0c-0.3,0-0.6,0-0.9,0
					c-0.1,0-0.2,0-0.3,0c-0.2,0-0.4,0-0.6,0c-0.2,0-0.3,0-0.5,0c-0.2,0-0.3,0-0.5,0c-0.2,0-0.4,0-0.5,0c-0.1,0-0.1,0-0.2,0
					C4.8,0.2,2.4,0.3,0,0.3v38.4c223.6-4.8,484.9,11.1,735,27.1c269,17.1,525,34.2,706.9,25.6v-3c-179.2,6.3-430.5-18.6-695.2-43.5
					c-0.7-0.1-1.3-0.1-2-0.2c-0.6-0.1-1.2-0.1-1.8-0.2c-45.1-4.2-90.7-8.5-136.3-12.6c-0.1,0-0.3,0-0.4,0c-0.8-0.1-1.6-0.1-2.4-0.2
					c-0.2,0-0.3,0-0.5,0c-0.8-0.1-1.5-0.1-2.3-0.2c-0.2,0-0.4,0-0.6-0.1c-0.6-0.1-1.2-0.1-1.8-0.2C407.7,14.2,215.4,0,42.9,0
					C32.4,0,22,0.1,11.7,0.2"/>
			</defs>
			<clipPath id="SVGID_16_">
				<use xlink:href="#SVGID_15_"  style="overflow:visible;"/>
			</clipPath>
			
				<linearGradient id="SVGID_17_" gradientUnits="userSpaceOnUse" x1="318.1083" y1="677.7695" x2="319.724" y2="677.7695" gradientTransform="matrix(34.7189 217.7768 -217.7768 34.7189 137261.5156 -92867.8984)">
				<stop  offset="0" style="stop-color:#FFFFFF"/>
				<stop  offset="1" style="stop-color:#009FE8"/>
			</linearGradient>
			<polygon class="st7" points="-122,2.5 35.7,128.5 1563.9,97.5 1406.2,-28.6 			"/>
		</g>
		<g class="st6">
			<defs>
				<path id="SVGID_18_" d="M0,18v20.7c223.6-4.8,484.9,11.1,735,27.1c269,17.1,525,34.2,706.9,25.6v-2.8
					c-180.6,7.4-434.4-13.7-701.4-34.8C510.9,35.6,271.4,17.5,60.2,17.5C39.9,17.5,19.8,17.6,0,18"/>
			</defs>
			<clipPath id="SVGID_19_">
				<use xlink:href="#SVGID_18_"  style="overflow:visible;"/>
			</clipPath>
			
				<linearGradient id="SVGID_20_" gradientUnits="userSpaceOnUse" x1="318.9155" y1="677.6639" x2="323.7733" y2="677.6639" gradientTransform="matrix(365.4216 92.0127 -92.0127 365.4216 -54283.4961 -277124.9062)">
				<stop  offset="0" style="stop-color:#FFFFFF"/>
				<stop  offset="1" style="stop-color:#009FE8"/>
			</linearGradient>
			<polygon class="st8" points="-153.3,95.1 1355.9,143.5 1595.2,22.4 86,-26 			"/>
		</g>
		<g class="st6">
			<defs>
				<path id="SVGID_21_" d="M0,0.3v38.4c223.6-4.8,484.9,11.1,735,27.1c269,17.1,525,34.2,706.9,25.6v-3
					c-179.7,6.3-431.7-18.7-697.2-43.7C507.5,22.3,259.5,0,42.9,0C28.4,0,14.1,0.1,0,0.3"/>
			</defs>
			<clipPath id="SVGID_22_">
				<use xlink:href="#SVGID_21_"  style="overflow:visible;"/>
			</clipPath>
			<g class="st9">
				<defs>
					<path id="SVGID_23_" d="M1524.6,88.7v30.4H-82.7V66.4C419.3,35.1,1179.8,127.8,1524.6,88.7"/>
				</defs>
				<clipPath id="SVGID_24_">
					<use xlink:href="#SVGID_23_"  style="overflow:visible;"/>
				</clipPath>
				
					<linearGradient id="SVGID_25_" gradientUnits="userSpaceOnUse" x1="313.8861" y1="677.8639" x2="315.8749" y2="677.8639" gradientTransform="matrix(-17.8123 89.0618 -89.0618 -17.8123 66692.7188 -15844.2676)">
					<stop  offset="0" style="stop-color:#FFFFFF"/>
					<stop  offset="1" style="stop-color:#009FE8"/>
				</linearGradient>
				<polygon class="st10" points="-20.9,-4.3 -222.7,124.2 1462.8,167.2 1664.5,38.7 				"/>
			</g>
		</g>
		<g class="st6">
			<defs>
				<path id="SVGID_26_" d="M0,0.3v38.4c223.6-4.8,484.9,11.1,735,27.1c269,17.1,525,34.2,706.9,25.6v-3
					c-179.7,6.3-431.7-18.7-697.2-43.7C507.5,22.3,259.5,0,42.9,0C28.4,0,14.1,0.1,0,0.3"/>
			</defs>
			<clipPath id="SVGID_27_">
				<use xlink:href="#SVGID_26_"  style="overflow:visible;"/>
			</clipPath>
			<g class="st11">
				<defs>
					<path id="SVGID_28_" d="M1524.6,100.7v18.4H-82.7V91.5C419.3,72.6,1179.8,124.4,1524.6,100.7"/>
				</defs>
				<clipPath id="SVGID_29_">
					<use xlink:href="#SVGID_28_"  style="overflow:visible;"/>
				</clipPath>
				
					<linearGradient id="SVGID_30_" gradientUnits="userSpaceOnUse" x1="318.2712" y1="680.6124" x2="322.8266" y2="680.6124" gradientTransform="matrix(-425.241 -21.5615 21.5615 -425.241 122282.3125 296430.5625)">
					<stop  offset="0" style="stop-color:#FFFFFF"/>
					<stop  offset="1" style="stop-color:#009FE8"/>
				</linearGradient>
				<polygon class="st12" points="1545.2,72.8 -78.6,62.3 -103.3,124.2 1520.5,134.7 				"/>
			</g>
		</g>
	</g>
</g>
</svg>
