<?xml version="1.0" encoding="utf-8"?>
<!-- Generator: Adobe Illustrator 19.2.1, SVG Export Plug-In . SVG Version: 6.00 Build 0)  -->
<svg version="1.1" id="レイヤー_1" xmlns="http://www.w3.org/2000/svg" xmlns:xlink="http://www.w3.org/1999/xlink" x="0px"
	 y="0px" viewBox="0 0 39.5 91.7" style="enable-background:new 0 0 39.5 91.7;" xml:space="preserve">
<style type="text/css">
	.st0{clip-path:url(#SVGID_2_);}
	.st1{fill:#ED3D3D;}
	.st2{fill:#F39800;}
	.st3{fill:#FFD400;}
	.st4{fill:#008000;}
	.st5{fill:#AFDFE4;}
	.st6{fill:#0067BF;}
	.st7{fill:#A757A8;}
</style>
<g>
	<g>
		<path d="M-554.4,90.6h-22v-8.1h5.4V9.3h-5.4V1.2h22v8.1h-5.5v73.2h5.5V90.6z"/>
		<path d="M-435.5,18.1c-7.8-5.5-14-7.7-22.8-7.7c-11.7,0-18.1,4.8-18.1,13.4c0,7.8,4.4,10.8,22.7,15.7c19,4.9,26.8,12.6,26.8,26.2
			c0,16.1-12.5,26-32.7,26c-13,0-21.6-2.8-31.8-10.5l6.1-10.1c8.8,7.2,16.6,10.1,27,10.1c12.4,0,19.9-5.5,19.9-14.7
			c0-8.6-3.8-11.5-20.5-16c-20.9-5.6-29.1-12.9-29.1-25.9c0-15.2,11.9-24.7,30.6-24.7c10.9,0,18.7,2.3,27.1,8.1L-435.5,18.1z"/>
		<path d="M-355.6,84.8c-6.8,5-12.8,7-20.9,7c-9.8,0-18.4-3.4-23.6-9.3c-4.8-5.6-7.8-14.9-7.8-24.8c0-21.3,12-34.2,31.6-34.2
			c8.6,0,13.3,1.7,20.4,7.6l-6.4,8.7c-5.1-4.7-9.3-6.5-15.1-6.5c-12.5,0-19.4,8.6-19.4,24.3c0,15.8,7.1,24.3,20,24.3
			c6.1,0,10.8-1.8,15.7-5.7L-355.6,84.8z"/>
		<path d="M-296.7,33.9c-1.4-0.1-2.1-0.1-3.3-0.1c-9.7,0-17.4,5.5-23,16.5v40.2h-10.5v-66h9.9v12.2c5.9-9.5,12.8-13.4,23.7-13.4
			c1.6,0,2.2,0,3.9,0.1L-296.7,33.9z"/>
		<path d="M-270.4,60.5c0.6,6.4,1.2,9,3,12.3c3.4,6,9.2,9.1,17.4,9.1c6.5,0,11.3-1.7,16.5-5.7l5.5,8.6c-7.2,5.1-13.2,7-22.4,7
			c-19.8,0-31.1-12.3-31.1-34c0-21.4,10.9-34.3,29.1-34.3c12.4,0,20.8,6.1,24.5,18.2c1.4,4.8,1.9,9.6,2.2,18.8H-270.4z M-237.4,50.8
			c-1.3-12.7-5.6-17.6-15.6-17.6c-10,0-15.1,5.3-17.1,17.6H-237.4z"/>
		<path d="M-199.6,27.7c7.8-3,14.7-4.3,22.3-4.3c16.5,0,23.6,7.9,23.6,26.5v40.6h-9.9v-5.2c-5.5,4.5-11.2,6.3-19.2,6.3
			c-14.6,0-23.2-7.8-23.2-21c0-14.7,11.4-21.9,34.5-21.9h7.3c-0.3-11.5-3.9-15.5-13.6-15.5c-6.8,0-12.7,1.5-19.4,4.8L-199.6,27.7z
			 M-164.1,58.3h-7.3c-16.6,0-23.5,3.5-23.5,12.2c0,7.3,4.6,11.3,13.3,11.3c6.5,0,12-1.9,17.6-6V58.3z"/>
		<path d="M-117.1,29.7c5.9-4.5,11.1-6.2,18.3-6.2c9.2,0,14.3,2.6,18.2,9.3c7-6.5,14-9.3,22.4-9.3c14.8,0,21.8,9.3,21.8,28.3v38.8
			h-10.4V52c0-13.4-3.7-18.7-13.1-18.7c-7,0-12.1,2.6-17.4,8.8c0.6,3.2,0.8,6.3,0.8,9.8v38.7H-87V51.7c0-13.2-3.9-18.4-13.1-18.4
			c-6.5,0-11.4,2.3-16.4,7.4v49.8H-127v-66h9.9V29.7z"/>
		<path d="M16.1,91.2L0,86.6l4.3-15.3l16.1,4.6L16.1,91.2z M39.5,5l-19,59.7l-10.6-3l14.8-61L39.5,5z"/>
	</g>
	<g>
		<defs>
			<path id="SVGID_1_" d="M-107.8-481.9c4.3,0,7.8-7.2,7.8-16c0-8.8-3-16-6.7-16c-3.7,0-13.4-4.8-21.7-10.8c0,0-14.5-10.5-7.9-20.5
				c6.4-9.6,13.3-37.9-4.3-53.8c-19.2-17.3-42.5-9.6-23.4-36.5c19.2-26.9-51.1-55.8-59.6-113.4c-8.5-57.6-59.6-59.6-85.2-50
				c-25.5,9.7-25.5,27-23.4,42.4c2.1,15.3,12.8-23.1,38.4-25c25.5-2,27.7,25-4.2,51.9c-32,26.9-38.3,25-72.4,46.1
				c-34,21.2,0,57.7-12.8,63.5c-40.5,19.2-27.7,44.2-25.5,67.3c1.9,20.5-5.2,26.7-5.2,26.7c-7.6,6.7-15.9,12.2-18.4,12.2
				c-2.6,0-4.6,7.2-4.6,16c0,8.8,3.6,16,7.9,16c4.3,0,10.5,7.9,13.7,17.5l38.6,116.1c3.2,9.7,5.8,17.6,5.7,17.6
				c-0.1,0-0.2,7.2-0.2,16c0,8.8,2.5,16,5.5,16c2.9,0,8,7.9,11.2,17.5l0.4,1.2c3.2,9.7,8.5,25.4,11.7,35.1l68.2,205
				c3.2,9.7,8.4,9.7,11.7,0l68.1-205c3.2-9.7,8.5-25.5,11.7-35.1l0.4-1.2c3.2-9.6,8.3-17.5,11.3-17.5c3,0,5.4-7.2,5.4-16
				c0-8.8-0.1-16-0.1-16c-0.1,0,2.5-7.9,5.7-17.6l38.6-116.1C-118.3-474-112.2-481.9-107.8-481.9"/>
		</defs>
		<clipPath id="SVGID_2_">
			<use xlink:href="#SVGID_1_"  style="overflow:visible;"/>
		</clipPath>
		<g class="st0">
			<rect x="-668.4" y="-816.4" class="st1" width="800" height="114.3"/>
			<rect x="-668.4" y="-702.1" class="st2" width="800" height="114.3"/>
			<rect x="-668.4" y="-587.8" class="st3" width="800" height="114.3"/>
			<rect x="-668.4" y="-473.5" class="st4" width="800" height="114.3"/>
			<rect x="-668.4" y="-359.3" class="st5" width="800" height="114.3"/>
			<rect x="-668.4" y="-245" class="st6" width="800" height="114.3"/>
			<rect x="-668.4" y="-130.7" class="st7" width="800" height="114.3"/>
		</g>
	</g>
</g>
</svg>
