<?xml version="1.0" encoding="utf-8"?>
<!-- Generator: Adobe Illustrator 19.2.1, SVG Export Plug-In . SVG Version: 6.00 Build 0)  -->
<svg version="1.1" id="レイヤー_1" xmlns="http://www.w3.org/2000/svg" xmlns:xlink="http://www.w3.org/1999/xlink" x="0px"
	 y="0px" viewBox="0 0 447.3 21.6" style="enable-background:new 0 0 447.3 21.6;" xml:space="preserve">
<g>
	<path d="M6.9,3h1.7l1.9,4.9L12.4,3h1.7l-2.5,6.2l2.4,5.9l4.8-12.1h2l-5.9,14.2h-1.6l-2.8-6.7l-2.8,6.7H6.1L0.2,2.9h1.9L6.9,15
		l2.4-5.9L6.9,3z"/>
	<path d="M27.4,17.3c-0.8,0-1.5-0.1-2.2-0.4s-1.2-0.7-1.7-1.2s-0.8-1.1-1.1-1.7c-0.3-0.7-0.4-1.4-0.4-2.1c0-0.7,0.1-1.4,0.4-2.1
		c0.3-0.7,0.6-1.2,1.1-1.7c0.5-0.5,1-0.9,1.7-1.2c0.7-0.3,1.4-0.4,2.2-0.4c0.8,0,1.5,0.1,2.2,0.4c0.6,0.3,1.2,0.7,1.7,1.2
		c0.5,0.5,0.8,1.1,1,1.7c0.2,0.6,0.4,1.3,0.4,2c0,0.1,0,0.3,0,0.4s0,0.2,0,0.3H24c0,0.5,0.2,1,0.4,1.4c0.2,0.4,0.5,0.8,0.8,1.1
		c0.3,0.3,0.7,0.5,1.1,0.7c0.4,0.2,0.8,0.3,1.3,0.3c0.3,0,0.6,0,0.9-0.1c0.3-0.1,0.6-0.2,0.9-0.4c0.3-0.1,0.5-0.3,0.7-0.5
		c0.2-0.2,0.4-0.5,0.5-0.7l1.5,0.4c-0.2,0.4-0.4,0.7-0.7,1.1c-0.3,0.3-0.6,0.6-1,0.8c-0.4,0.2-0.8,0.4-1.3,0.5
		C28.4,17.2,27.9,17.3,27.4,17.3z M31,11.2c0-0.5-0.2-1-0.4-1.4S30.2,9,29.8,8.7s-0.7-0.5-1.1-0.7c-0.4-0.2-0.9-0.2-1.3-0.2
		s-0.9,0.1-1.3,0.2c-0.4,0.2-0.8,0.4-1.1,0.7c-0.3,0.3-0.6,0.7-0.8,1.1c-0.2,0.4-0.3,0.9-0.3,1.4H31z"/>
	<path d="M45.1,2.9h1.5l5.8,14.2h-1.9l-1.7-4.2h-6l-1.7,4.2h-1.9L45.1,2.9z M48.4,11.5L45.8,5l-2.6,6.6H48.4z"/>
	<path d="M59.9,8.2c-0.9,0-1.7,0.3-2.3,0.7c-0.7,0.4-1.2,1-1.4,1.8v6.4h-1.8V6.7h1.6v2.4c0.4-0.7,0.8-1.3,1.4-1.8
		c0.6-0.4,1.2-0.7,1.9-0.8c0.1,0,0.2,0,0.3,0c0.1,0,0.2,0,0.2,0V8.2z"/>
	<path d="M66.7,17.3c-0.8,0-1.5-0.1-2.2-0.4s-1.2-0.7-1.7-1.2S62,14.6,61.8,14c-0.3-0.7-0.4-1.4-0.4-2.1c0-0.7,0.1-1.4,0.4-2.1
		c0.3-0.7,0.6-1.2,1.1-1.7c0.5-0.5,1-0.9,1.7-1.2c0.7-0.3,1.4-0.4,2.2-0.4c0.8,0,1.5,0.1,2.2,0.4c0.6,0.3,1.2,0.7,1.7,1.2
		c0.5,0.5,0.8,1.1,1,1.7c0.2,0.6,0.4,1.3,0.4,2c0,0.1,0,0.3,0,0.4s0,0.2,0,0.3h-8.7c0,0.5,0.2,1,0.4,1.4c0.2,0.4,0.5,0.8,0.8,1.1
		c0.3,0.3,0.7,0.5,1.1,0.7c0.4,0.2,0.8,0.3,1.3,0.3c0.3,0,0.6,0,0.9-0.1c0.3-0.1,0.6-0.2,0.9-0.4c0.3-0.1,0.5-0.3,0.7-0.5
		c0.2-0.2,0.4-0.5,0.5-0.7l1.5,0.4c-0.2,0.4-0.4,0.7-0.7,1.1c-0.3,0.3-0.6,0.6-1,0.8c-0.4,0.2-0.8,0.4-1.3,0.5
		C67.7,17.2,67.2,17.3,66.7,17.3z M70.3,11.2c0-0.5-0.2-1-0.4-1.4S69.4,9,69.1,8.7S68.5,8.2,68,8.1c-0.4-0.2-0.9-0.2-1.3-0.2
		s-0.9,0.1-1.3,0.2c-0.4,0.2-0.8,0.4-1.1,0.7c-0.3,0.3-0.6,0.7-0.8,1.1c-0.2,0.4-0.3,0.9-0.3,1.4H70.3z"/>
	<path d="M90.3,4.5h-4.9v12.6h-1.8V4.5h-4.9V2.9h11.6V4.5z"/>
	<path d="M97,17.3c-0.8,0-1.5-0.1-2.2-0.4s-1.2-0.7-1.7-1.2s-0.8-1.1-1.1-1.7c-0.3-0.7-0.4-1.3-0.4-2.1c0-0.7,0.1-1.4,0.4-2.1
		c0.3-0.7,0.6-1.2,1.1-1.7c0.5-0.5,1-0.9,1.7-1.2c0.6-0.3,1.4-0.4,2.1-0.4c0.8,0,1.5,0.1,2.1,0.4c0.7,0.3,1.2,0.7,1.7,1.2
		c0.5,0.5,0.8,1.1,1.1,1.7s0.4,1.3,0.4,2.1c0,0.7-0.1,1.4-0.4,2.1c-0.3,0.7-0.6,1.2-1.1,1.7s-1,0.9-1.7,1.2S97.8,17.3,97,17.3z
		 M93.5,11.9c0,0.5,0.1,1.1,0.3,1.5c0.2,0.5,0.4,0.9,0.7,1.2c0.3,0.3,0.7,0.6,1.1,0.8c0.4,0.2,0.9,0.3,1.4,0.3
		c0.5,0,0.9-0.1,1.3-0.3c0.4-0.2,0.8-0.5,1.1-0.8c0.3-0.4,0.6-0.8,0.8-1.2c0.2-0.5,0.3-1,0.3-1.5c0-0.5-0.1-1-0.3-1.5
		c-0.2-0.5-0.4-0.9-0.8-1.2c-0.3-0.4-0.7-0.6-1.1-0.8C97.9,8.1,97.5,8,97,8c-0.5,0-0.9,0.1-1.4,0.3c-0.4,0.2-0.8,0.5-1.1,0.8
		c-0.3,0.4-0.6,0.8-0.7,1.2C93.6,10.9,93.5,11.4,93.5,11.9z"/>
	<path d="M110.2,16.6c-0.1,0.1-0.2,0.1-0.4,0.2c-0.2,0.1-0.4,0.1-0.6,0.2c-0.2,0.1-0.5,0.1-0.7,0.2c-0.3,0-0.5,0.1-0.8,0.1
		c-0.6,0-1.2-0.2-1.7-0.5c-0.5-0.4-0.7-0.9-0.7-1.6V8h-1.4V6.7h1.4V3.2h1.8v3.5h2.3V8h-2.3v6.5c0,0.4,0.2,0.7,0.4,0.8
		c0.2,0.2,0.5,0.3,0.8,0.3c0.3,0,0.7-0.1,0.9-0.2c0.3-0.1,0.5-0.2,0.6-0.3L110.2,16.6z"/>
	<path d="M114.9,17.3c-0.5,0-1-0.1-1.4-0.2c-0.4-0.2-0.8-0.4-1.1-0.7c-0.3-0.3-0.6-0.6-0.7-1c-0.2-0.4-0.3-0.8-0.3-1.3
		c0-0.5,0.1-0.9,0.3-1.3c0.2-0.4,0.5-0.7,0.9-1c0.4-0.3,0.9-0.5,1.4-0.7c0.5-0.2,1.1-0.2,1.8-0.2c0.5,0,1,0,1.5,0.1
		c0.5,0.1,1,0.2,1.4,0.4v-0.8c0-0.9-0.2-1.5-0.7-2c-0.5-0.5-1.2-0.7-2-0.7c-1.1,0-2.2,0.4-3.3,1.2l-0.6-1.1c1.3-0.9,2.7-1.4,4.1-1.4
		c1.4,0,2.4,0.4,3.2,1.1c0.8,0.7,1.1,1.8,1.1,3.1v4.3c0,0.4,0.2,0.6,0.6,0.6v1.5c-0.2,0-0.3,0-0.5,0.1c-0.1,0-0.2,0-0.4,0
		c-0.3,0-0.6-0.1-0.8-0.3c-0.2-0.2-0.3-0.5-0.4-0.8l0-0.7c-0.5,0.6-1.1,1.1-1.8,1.4C116.5,17.1,115.8,17.3,114.9,17.3z M115.4,16
		c0.6,0,1.2-0.1,1.8-0.4c0.5-0.2,1-0.5,1.2-0.9c0.3-0.3,0.4-0.5,0.4-0.8v-1.5c-0.9-0.3-1.7-0.5-2.7-0.5c-0.9,0-1.6,0.2-2.1,0.6
		c-0.6,0.4-0.8,0.9-0.8,1.5c0,0.3,0.1,0.6,0.2,0.8s0.3,0.5,0.5,0.7c0.2,0.2,0.5,0.3,0.7,0.4C114.8,15.9,115.1,16,115.4,16z"/>
	<path d="M123.8,2.5h1.8v11.9c0,0.4,0.1,0.7,0.3,0.9c0.2,0.2,0.5,0.3,0.9,0.3c0.1,0,0.3,0,0.5-0.1s0.4-0.1,0.6-0.2l0.3,1.4
		c-0.3,0.1-0.6,0.2-1,0.3c-0.4,0.1-0.8,0.1-1.1,0.1c-0.7,0-1.2-0.2-1.6-0.6s-0.6-0.9-0.6-1.6V2.5z"/>
	<path d="M145.2,15.5v1.6h-9.6V2.9h9.5v1.6h-7.7v4.6h6.7v1.5h-6.7v4.9H145.2z"/>
	<path d="M150.8,17.1l-4.1-10.4h1.8l3.3,8.9l3.3-8.9h1.7l-4.1,10.4H150.8z"/>
	<path d="M163.6,17.3c-0.8,0-1.5-0.1-2.2-0.4s-1.2-0.7-1.7-1.2s-0.8-1.1-1.1-1.7c-0.3-0.7-0.4-1.4-0.4-2.1c0-0.7,0.1-1.4,0.4-2.1
		c0.3-0.7,0.6-1.2,1.1-1.7c0.5-0.5,1-0.9,1.7-1.2c0.7-0.3,1.4-0.4,2.2-0.4c0.8,0,1.5,0.1,2.2,0.4c0.6,0.3,1.2,0.7,1.7,1.2
		c0.5,0.5,0.8,1.1,1,1.7c0.2,0.6,0.4,1.3,0.4,2c0,0.1,0,0.3,0,0.4s0,0.2,0,0.3h-8.7c0,0.5,0.2,1,0.4,1.4c0.2,0.4,0.5,0.8,0.8,1.1
		c0.3,0.3,0.7,0.5,1.1,0.7c0.4,0.2,0.8,0.3,1.3,0.3c0.3,0,0.6,0,0.9-0.1c0.3-0.1,0.6-0.2,0.9-0.4c0.3-0.1,0.5-0.3,0.7-0.5
		c0.2-0.2,0.4-0.5,0.5-0.7l1.5,0.4c-0.2,0.4-0.4,0.7-0.7,1.1c-0.3,0.3-0.6,0.6-1,0.8c-0.4,0.2-0.8,0.4-1.3,0.5
		C164.6,17.2,164.1,17.3,163.6,17.3z M167.2,11.2c0-0.5-0.2-1-0.4-1.4S166.3,9,166,8.7s-0.7-0.5-1.1-0.7c-0.4-0.2-0.9-0.2-1.3-0.2
		s-0.9,0.1-1.3,0.2c-0.4,0.2-0.8,0.4-1.1,0.7c-0.3,0.3-0.6,0.7-0.8,1.1c-0.2,0.4-0.3,0.9-0.3,1.4H167.2z"/>
	<path d="M180.3,17.1h-1.8v-5.8c0-1.1-0.2-1.9-0.5-2.4s-0.9-0.8-1.5-0.8c-0.4,0-0.7,0.1-1.1,0.2s-0.7,0.3-1,0.6
		c-0.3,0.2-0.6,0.5-0.8,0.9c-0.2,0.3-0.4,0.7-0.5,1.1v6.3h-1.8V6.7h1.6v2.2c0.4-0.7,1-1.3,1.8-1.8c0.8-0.4,1.6-0.7,2.6-0.7
		c0.6,0,1.1,0.1,1.5,0.3c0.4,0.2,0.7,0.5,1,0.9c0.2,0.4,0.4,0.9,0.5,1.4s0.2,1.1,0.2,1.7V17.1z"/>
	<path d="M188.8,16.6c-0.1,0.1-0.2,0.1-0.4,0.2c-0.2,0.1-0.4,0.1-0.6,0.2c-0.2,0.1-0.5,0.1-0.7,0.2c-0.3,0-0.5,0.1-0.8,0.1
		c-0.6,0-1.2-0.2-1.7-0.5c-0.5-0.4-0.7-0.9-0.7-1.6V8h-1.4V6.7h1.4V3.2h1.8v3.5h2.3V8h-2.3v6.5c0,0.4,0.2,0.7,0.4,0.8
		c0.2,0.2,0.5,0.3,0.8,0.3c0.3,0,0.7-0.1,0.9-0.2c0.3-0.1,0.5-0.2,0.6-0.3L188.8,16.6z"/>
	<path d="M195.7,9.9c0-0.9,0.1-1.7,0.5-2.5c0.3-0.8,0.7-1.6,1.3-2.3s1.3-1.2,2.1-1.6c0.8-0.4,1.8-0.6,2.9-0.6c1.3,0,2.4,0.3,3.3,0.9
		c0.9,0.6,1.6,1.3,2,2.2l-1.4,0.9c-0.2-0.5-0.5-0.8-0.8-1.1s-0.6-0.6-1-0.7c-0.4-0.2-0.7-0.3-1.1-0.4c-0.4-0.1-0.7-0.1-1.1-0.1
		c-0.8,0-1.5,0.2-2.1,0.5c-0.6,0.3-1.1,0.8-1.5,1.3c-0.4,0.5-0.7,1.1-0.9,1.8c-0.2,0.7-0.3,1.3-0.3,2c0,0.7,0.1,1.5,0.4,2.1
		c0.2,0.7,0.6,1.3,1,1.8s1,0.9,1.6,1.2c0.6,0.3,1.3,0.5,2,0.5c0.4,0,0.8,0,1.2-0.1c0.4-0.1,0.8-0.2,1.1-0.4c0.4-0.2,0.7-0.5,1-0.8
		c0.3-0.3,0.6-0.7,0.8-1.1l1.5,0.8c-0.2,0.5-0.5,1-1,1.4c-0.4,0.4-0.9,0.8-1.4,1c-0.5,0.3-1.1,0.5-1.6,0.6c-0.6,0.1-1.1,0.2-1.7,0.2
		c-1,0-1.9-0.2-2.7-0.6s-1.5-1-2.1-1.7c-0.6-0.7-1.1-1.5-1.4-2.3C195.8,11.7,195.7,10.8,195.7,9.9z"/>
	<path d="M214.9,17.3c-0.8,0-1.5-0.1-2.2-0.4s-1.2-0.7-1.7-1.2s-0.8-1.1-1.1-1.7c-0.3-0.7-0.4-1.3-0.4-2.1c0-0.7,0.1-1.4,0.4-2.1
		c0.3-0.7,0.6-1.2,1.1-1.7c0.5-0.5,1-0.9,1.7-1.2c0.6-0.3,1.4-0.4,2.1-0.4c0.8,0,1.5,0.1,2.1,0.4c0.7,0.3,1.2,0.7,1.7,1.2
		c0.5,0.5,0.8,1.1,1.1,1.7s0.4,1.3,0.4,2.1c0,0.7-0.1,1.4-0.4,2.1c-0.3,0.7-0.6,1.2-1.1,1.7s-1,0.9-1.7,1.2S215.7,17.3,214.9,17.3z
		 M211.4,11.9c0,0.5,0.1,1.1,0.3,1.5c0.2,0.5,0.4,0.9,0.7,1.2c0.3,0.3,0.7,0.6,1.1,0.8c0.4,0.2,0.9,0.3,1.4,0.3
		c0.5,0,0.9-0.1,1.3-0.3c0.4-0.2,0.8-0.5,1.1-0.8c0.3-0.4,0.6-0.8,0.8-1.2c0.2-0.5,0.3-1,0.3-1.5c0-0.5-0.1-1-0.3-1.5
		c-0.2-0.5-0.4-0.9-0.8-1.2c-0.3-0.4-0.7-0.6-1.1-0.8c-0.4-0.2-0.9-0.3-1.3-0.3c-0.5,0-0.9,0.1-1.4,0.3c-0.4,0.2-0.8,0.5-1.1,0.8
		c-0.3,0.4-0.6,0.8-0.7,1.2C211.5,10.9,211.4,11.4,211.4,11.9z"/>
	<path d="M238.5,17.1h-1.8v-5.8c0-1.1-0.2-1.9-0.5-2.4c-0.4-0.5-0.9-0.8-1.6-0.8c-0.7,0-1.4,0.3-1.9,0.8c-0.6,0.5-1,1.2-1.2,2v6.3
		h-1.8v-5.8c0-1.1-0.2-1.9-0.5-2.4s-0.9-0.8-1.6-0.8c-0.7,0-1.3,0.2-1.9,0.8c-0.6,0.5-1,1.2-1.2,2v6.3h-1.8V6.7h1.6v2.2
		c0.4-0.8,1-1.4,1.7-1.8c0.7-0.4,1.4-0.6,2.3-0.6c0.9,0,1.6,0.2,2.1,0.7c0.5,0.5,0.8,1.1,0.9,1.8c0.9-1.7,2.3-2.5,4-2.5
		c0.6,0,1.1,0.1,1.5,0.3c0.4,0.2,0.7,0.5,1,0.9c0.2,0.4,0.4,0.9,0.5,1.4s0.2,1.1,0.2,1.7V17.1z"/>
	<path d="M257.3,17.1h-1.8v-5.8c0-1.1-0.2-1.9-0.5-2.4c-0.4-0.5-0.9-0.8-1.6-0.8c-0.7,0-1.4,0.3-1.9,0.8c-0.6,0.5-1,1.2-1.2,2v6.3
		h-1.8v-5.8c0-1.1-0.2-1.9-0.5-2.4s-0.9-0.8-1.6-0.8c-0.7,0-1.3,0.2-1.9,0.8c-0.6,0.5-1,1.2-1.2,2v6.3h-1.8V6.7h1.6v2.2
		c0.4-0.8,1-1.4,1.7-1.8c0.7-0.4,1.4-0.6,2.3-0.6c0.9,0,1.6,0.2,2.1,0.7c0.5,0.5,0.8,1.1,0.9,1.8c0.9-1.7,2.3-2.5,4-2.5
		c0.6,0,1.1,0.1,1.5,0.3c0.4,0.2,0.7,0.5,1,0.9c0.2,0.4,0.4,0.9,0.5,1.4s0.2,1.1,0.2,1.7V17.1z"/>
	<path d="M263.7,17.3c-1.1,0-1.9-0.4-2.5-1.1c-0.6-0.7-0.8-1.8-0.8-3.3V6.7h1.8v5.9c0,2.1,0.7,3.2,2.2,3.2c0.7,0,1.4-0.2,2-0.7
		c0.6-0.5,1.1-1.1,1.4-1.9V6.7h1.8v8.3c0,0.4,0.2,0.6,0.6,0.6v1.5c-0.2,0-0.4,0-0.5,0s-0.2,0-0.3,0c-0.3,0-0.6-0.1-0.9-0.3
		c-0.2-0.2-0.4-0.5-0.4-0.8l0-1.2c-0.5,0.8-1.1,1.4-1.8,1.8C265.4,17.1,264.6,17.3,263.7,17.3z"/>
	<path d="M282,17.1h-1.8v-5.8c0-1.1-0.2-1.9-0.5-2.4s-0.9-0.8-1.5-0.8c-0.4,0-0.7,0.1-1.1,0.2s-0.7,0.3-1,0.6
		c-0.3,0.2-0.6,0.5-0.8,0.9c-0.2,0.3-0.4,0.7-0.5,1.1v6.3h-1.8V6.7h1.6v2.2c0.4-0.7,1-1.3,1.8-1.8c0.8-0.4,1.6-0.7,2.6-0.7
		c0.6,0,1.1,0.1,1.5,0.3c0.4,0.2,0.7,0.5,1,0.9c0.2,0.4,0.4,0.9,0.5,1.4s0.2,1.1,0.2,1.7V17.1z"/>
	<path d="M285.1,4.7V2.5h1.8v2.2H285.1z M285.1,17.1V6.7h1.8v10.4H285.1z"/>
	<path d="M289.4,11.9c0-0.7,0.1-1.4,0.4-2.1c0.3-0.7,0.6-1.2,1.1-1.7s1-0.9,1.7-1.2s1.4-0.4,2.2-0.4c1,0,1.9,0.2,2.7,0.7
		s1.3,1.1,1.7,1.9l-1.7,0.5c-0.3-0.5-0.6-0.9-1.1-1.1c-0.5-0.3-1-0.4-1.6-0.4c-0.5,0-0.9,0.1-1.4,0.3c-0.4,0.2-0.8,0.5-1.1,0.8
		s-0.5,0.8-0.7,1.2s-0.3,1-0.3,1.5c0,0.5,0.1,1.1,0.3,1.5s0.4,0.9,0.8,1.2c0.3,0.4,0.7,0.6,1.1,0.8c0.4,0.2,0.9,0.3,1.3,0.3
		c0.3,0,0.6,0,0.9-0.1c0.3-0.1,0.6-0.2,0.8-0.3c0.2-0.1,0.5-0.3,0.6-0.5c0.2-0.2,0.3-0.4,0.4-0.6l1.7,0.5c-0.2,0.4-0.4,0.7-0.7,1.1
		c-0.3,0.3-0.6,0.6-1,0.8c-0.4,0.2-0.8,0.4-1.3,0.5c-0.5,0.1-1,0.2-1.5,0.2c-0.8,0-1.5-0.1-2.2-0.4s-1.2-0.7-1.7-1.2
		s-0.8-1.1-1.1-1.7C289.5,13.3,289.4,12.6,289.4,11.9z"/>
	<path d="M304.3,17.3c-0.5,0-1-0.1-1.4-0.2c-0.4-0.2-0.8-0.4-1.1-0.7c-0.3-0.3-0.6-0.6-0.7-1c-0.2-0.4-0.3-0.8-0.3-1.3
		c0-0.5,0.1-0.9,0.3-1.3c0.2-0.4,0.5-0.7,0.9-1c0.4-0.3,0.9-0.5,1.4-0.7c0.5-0.2,1.1-0.2,1.8-0.2c0.5,0,1,0,1.5,0.1
		c0.5,0.1,1,0.2,1.4,0.4v-0.8c0-0.9-0.2-1.5-0.7-2c-0.5-0.5-1.2-0.7-2-0.7c-1.1,0-2.2,0.4-3.3,1.2l-0.6-1.1c1.3-0.9,2.7-1.4,4.1-1.4
		c1.4,0,2.4,0.4,3.2,1.1c0.8,0.7,1.1,1.8,1.1,3.1v4.3c0,0.4,0.2,0.6,0.6,0.6v1.5c-0.2,0-0.3,0-0.5,0.1c-0.1,0-0.2,0-0.4,0
		c-0.3,0-0.6-0.1-0.8-0.3c-0.2-0.2-0.3-0.5-0.4-0.8l0-0.7c-0.5,0.6-1.1,1.1-1.8,1.4C305.8,17.1,305.1,17.3,304.3,17.3z M304.7,16
		c0.6,0,1.2-0.1,1.8-0.4c0.5-0.2,1-0.5,1.2-0.9c0.3-0.3,0.4-0.5,0.4-0.8v-1.5c-0.9-0.3-1.7-0.5-2.7-0.5c-0.9,0-1.6,0.2-2.1,0.6
		c-0.6,0.4-0.8,0.9-0.8,1.5c0,0.3,0.1,0.6,0.2,0.8s0.3,0.5,0.5,0.7c0.2,0.2,0.5,0.3,0.7,0.4C304.1,15.9,304.4,16,304.7,16z"/>
	<path d="M318.5,16.6c-0.1,0.1-0.2,0.1-0.4,0.2c-0.2,0.1-0.4,0.1-0.6,0.2c-0.2,0.1-0.5,0.1-0.7,0.2c-0.3,0-0.5,0.1-0.8,0.1
		c-0.6,0-1.2-0.2-1.7-0.5c-0.5-0.4-0.7-0.9-0.7-1.6V8h-1.4V6.7h1.4V3.2h1.8v3.5h2.3V8h-2.3v6.5c0,0.4,0.2,0.7,0.4,0.8
		c0.2,0.2,0.5,0.3,0.8,0.3c0.3,0,0.7-0.1,0.9-0.2c0.3-0.1,0.5-0.2,0.6-0.3L318.5,16.6z"/>
	<path d="M320.5,4.7V2.5h1.8v2.2H320.5z M320.5,17.1V6.7h1.8v10.4H320.5z"/>
	<path d="M330.1,17.3c-0.8,0-1.5-0.1-2.2-0.4s-1.2-0.7-1.7-1.2s-0.8-1.1-1.1-1.7c-0.3-0.7-0.4-1.3-0.4-2.1c0-0.7,0.1-1.4,0.4-2.1
		c0.3-0.7,0.6-1.2,1.1-1.7c0.5-0.5,1-0.9,1.7-1.2c0.6-0.3,1.4-0.4,2.1-0.4c0.8,0,1.5,0.1,2.1,0.4c0.7,0.3,1.2,0.7,1.7,1.2
		c0.5,0.5,0.8,1.1,1.1,1.7s0.4,1.3,0.4,2.1c0,0.7-0.1,1.4-0.4,2.1c-0.3,0.7-0.6,1.2-1.1,1.7s-1,0.9-1.7,1.2S330.8,17.3,330.1,17.3z
		 M326.6,11.9c0,0.5,0.1,1.1,0.3,1.5c0.2,0.5,0.4,0.9,0.7,1.2c0.3,0.3,0.7,0.6,1.1,0.8c0.4,0.2,0.9,0.3,1.4,0.3
		c0.5,0,0.9-0.1,1.3-0.3c0.4-0.2,0.8-0.5,1.1-0.8c0.3-0.4,0.6-0.8,0.8-1.2c0.2-0.5,0.3-1,0.3-1.5c0-0.5-0.1-1-0.3-1.5
		c-0.2-0.5-0.4-0.9-0.8-1.2c-0.3-0.4-0.7-0.6-1.1-0.8C331,8.1,330.5,8,330.1,8c-0.5,0-0.9,0.1-1.4,0.3c-0.4,0.2-0.8,0.5-1.1,0.8
		c-0.3,0.4-0.6,0.8-0.7,1.2C326.7,10.9,326.6,11.4,326.6,11.9z"/>
	<path d="M346.9,17.1h-1.8v-5.8c0-1.1-0.2-1.9-0.5-2.4s-0.9-0.8-1.5-0.8c-0.4,0-0.7,0.1-1.1,0.2s-0.7,0.3-1,0.6
		c-0.3,0.2-0.6,0.5-0.8,0.9c-0.2,0.3-0.4,0.7-0.5,1.1v6.3h-1.8V6.7h1.6v2.2c0.4-0.7,1-1.3,1.8-1.8c0.8-0.4,1.6-0.7,2.6-0.7
		c0.6,0,1.1,0.1,1.5,0.3c0.4,0.2,0.7,0.5,1,0.9c0.2,0.4,0.4,0.9,0.5,1.4s0.2,1.1,0.2,1.7V17.1z"/>
	<path d="M354.9,9.9c0-0.9,0.1-1.7,0.5-2.5c0.3-0.8,0.7-1.6,1.3-2.3s1.3-1.2,2.1-1.6c0.8-0.4,1.8-0.6,2.9-0.6c1.3,0,2.4,0.3,3.3,0.9
		c0.9,0.6,1.6,1.3,2,2.2l-1.4,0.9c-0.2-0.5-0.5-0.8-0.8-1.1s-0.6-0.6-1-0.7c-0.4-0.2-0.7-0.3-1.1-0.4c-0.4-0.1-0.7-0.1-1.1-0.1
		c-0.8,0-1.5,0.2-2.1,0.5c-0.6,0.3-1.1,0.8-1.5,1.3c-0.4,0.5-0.7,1.1-0.9,1.8c-0.2,0.7-0.3,1.3-0.3,2c0,0.7,0.1,1.5,0.4,2.1
		c0.2,0.7,0.6,1.3,1,1.8s1,0.9,1.6,1.2c0.6,0.3,1.3,0.5,2,0.5c0.4,0,0.8,0,1.2-0.1c0.4-0.1,0.8-0.2,1.1-0.4c0.4-0.2,0.7-0.5,1-0.8
		c0.3-0.3,0.6-0.7,0.8-1.1l1.5,0.8c-0.2,0.5-0.5,1-1,1.4c-0.4,0.4-0.9,0.8-1.4,1c-0.5,0.3-1.1,0.5-1.6,0.6c-0.6,0.1-1.1,0.2-1.7,0.2
		c-1,0-1.9-0.2-2.7-0.6s-1.5-1-2.1-1.7c-0.6-0.7-1.1-1.5-1.4-2.3C355.1,11.7,354.9,10.8,354.9,9.9z"/>
	<path d="M374.1,17.3c-0.8,0-1.5-0.1-2.2-0.4s-1.2-0.7-1.7-1.2s-0.8-1.1-1.1-1.7c-0.3-0.7-0.4-1.3-0.4-2.1c0-0.7,0.1-1.4,0.4-2.1
		c0.3-0.7,0.6-1.2,1.1-1.7c0.5-0.5,1-0.9,1.7-1.2c0.6-0.3,1.4-0.4,2.1-0.4c0.8,0,1.5,0.1,2.1,0.4c0.7,0.3,1.2,0.7,1.7,1.2
		c0.5,0.5,0.8,1.1,1.1,1.7s0.4,1.3,0.4,2.1c0,0.7-0.1,1.4-0.4,2.1c-0.3,0.7-0.6,1.2-1.1,1.7s-1,0.9-1.7,1.2S374.9,17.3,374.1,17.3z
		 M370.7,11.9c0,0.5,0.1,1.1,0.3,1.5c0.2,0.5,0.4,0.9,0.7,1.2c0.3,0.3,0.7,0.6,1.1,0.8c0.4,0.2,0.9,0.3,1.4,0.3
		c0.5,0,0.9-0.1,1.3-0.3c0.4-0.2,0.8-0.5,1.1-0.8c0.3-0.4,0.6-0.8,0.8-1.2c0.2-0.5,0.3-1,0.3-1.5c0-0.5-0.1-1-0.3-1.5
		c-0.2-0.5-0.4-0.9-0.8-1.2c-0.3-0.4-0.7-0.6-1.1-0.8c-0.4-0.2-0.9-0.3-1.3-0.3c-0.5,0-0.9,0.1-1.4,0.3c-0.4,0.2-0.8,0.5-1.1,0.8
		c-0.3,0.4-0.6,0.8-0.7,1.2C370.8,10.9,370.7,11.4,370.7,11.9z"/>
	<path d="M397.7,17.1h-1.8v-5.8c0-1.1-0.2-1.9-0.5-2.4c-0.4-0.5-0.9-0.8-1.6-0.8c-0.7,0-1.4,0.3-1.9,0.8c-0.6,0.5-1,1.2-1.2,2v6.3
		h-1.8v-5.8c0-1.1-0.2-1.9-0.5-2.4s-0.9-0.8-1.6-0.8c-0.7,0-1.3,0.2-1.9,0.8c-0.6,0.5-1,1.2-1.2,2v6.3H382V6.7h1.6v2.2
		c0.4-0.8,1-1.4,1.7-1.8c0.7-0.4,1.4-0.6,2.3-0.6c0.9,0,1.6,0.2,2.1,0.7c0.5,0.5,0.8,1.1,0.9,1.8c0.9-1.7,2.3-2.5,4-2.5
		c0.6,0,1.1,0.1,1.5,0.3c0.4,0.2,0.7,0.5,1,0.9c0.2,0.4,0.4,0.9,0.5,1.4s0.2,1.1,0.2,1.7V17.1z"/>
	<path d="M406.5,17.3c-0.9,0-1.6-0.2-2.3-0.6s-1.2-1-1.6-1.6v6.3h-1.8V6.7h1.6v2c0.4-0.6,0.9-1.2,1.6-1.5c0.7-0.4,1.4-0.6,2.2-0.6
		c0.7,0,1.4,0.1,2,0.4c0.6,0.3,1.1,0.7,1.6,1.2c0.4,0.5,0.8,1.1,1,1.7c0.2,0.7,0.4,1.3,0.4,2c0,0.7-0.1,1.5-0.3,2.1
		c-0.2,0.7-0.5,1.2-1,1.7c-0.4,0.5-0.9,0.9-1.5,1.2C407.8,17.2,407.1,17.3,406.5,17.3z M405.9,15.8c0.5,0,1-0.1,1.4-0.3
		c0.4-0.2,0.8-0.5,1.1-0.9s0.5-0.8,0.7-1.2s0.2-0.9,0.2-1.4c0-0.5-0.1-1-0.3-1.5c-0.2-0.5-0.4-0.9-0.8-1.2c-0.3-0.4-0.7-0.6-1.1-0.8
		c-0.4-0.2-0.9-0.3-1.4-0.3c-0.3,0-0.6,0.1-1,0.2c-0.3,0.1-0.7,0.3-1,0.5c-0.3,0.2-0.6,0.5-0.8,0.7c-0.2,0.3-0.4,0.6-0.4,0.9v3
		c0.1,0.3,0.3,0.7,0.6,1c0.2,0.3,0.5,0.6,0.8,0.8c0.3,0.2,0.6,0.4,0.9,0.5C405.2,15.7,405.6,15.8,405.9,15.8z"/>
	<path d="M416.4,17.3c-0.5,0-1-0.1-1.4-0.2c-0.4-0.2-0.8-0.4-1.1-0.7c-0.3-0.3-0.6-0.6-0.7-1c-0.2-0.4-0.3-0.8-0.3-1.3
		c0-0.5,0.1-0.9,0.3-1.3c0.2-0.4,0.5-0.7,0.9-1c0.4-0.3,0.9-0.5,1.4-0.7c0.5-0.2,1.1-0.2,1.8-0.2c0.5,0,1,0,1.5,0.1
		c0.5,0.1,1,0.2,1.4,0.4v-0.8c0-0.9-0.2-1.5-0.7-2c-0.5-0.5-1.2-0.7-2-0.7c-1.1,0-2.2,0.4-3.3,1.2l-0.6-1.1c1.3-0.9,2.7-1.4,4.1-1.4
		c1.4,0,2.4,0.4,3.2,1.1c0.8,0.7,1.1,1.8,1.1,3.1v4.3c0,0.4,0.2,0.6,0.6,0.6v1.5c-0.2,0-0.3,0-0.5,0.1c-0.1,0-0.2,0-0.4,0
		c-0.3,0-0.6-0.1-0.8-0.3c-0.2-0.2-0.3-0.5-0.4-0.8l0-0.7c-0.5,0.6-1.1,1.1-1.8,1.4C417.9,17.1,417.2,17.3,416.4,17.3z M416.8,16
		c0.6,0,1.2-0.1,1.8-0.4c0.5-0.2,1-0.5,1.2-0.9c0.3-0.3,0.4-0.5,0.4-0.8v-1.5c-0.9-0.3-1.7-0.5-2.7-0.5c-0.9,0-1.6,0.2-2.1,0.6
		c-0.6,0.4-0.8,0.9-0.8,1.5c0,0.3,0.1,0.6,0.2,0.8s0.3,0.5,0.5,0.7c0.2,0.2,0.5,0.3,0.7,0.4C416.2,15.9,416.5,16,416.8,16z"/>
	<path d="M434.2,17.1h-1.8v-5.8c0-1.1-0.2-1.9-0.5-2.4s-0.9-0.8-1.5-0.8c-0.4,0-0.7,0.1-1.1,0.2s-0.7,0.3-1,0.6
		c-0.3,0.2-0.6,0.5-0.8,0.9c-0.2,0.3-0.4,0.7-0.5,1.1v6.3h-1.8V6.7h1.6v2.2c0.4-0.7,1-1.3,1.8-1.8c0.8-0.4,1.6-0.7,2.6-0.7
		c0.6,0,1.1,0.1,1.5,0.3c0.4,0.2,0.7,0.5,1,0.9c0.2,0.4,0.4,0.9,0.5,1.4s0.2,1.1,0.2,1.7V17.1z"/>
	<path d="M437.9,19.9c0.2,0,0.3,0,0.5,0.1c0.2,0,0.3,0,0.4,0c0.2,0,0.3,0,0.4-0.1s0.3-0.2,0.4-0.4s0.3-0.5,0.4-0.9
		c0.2-0.4,0.4-0.9,0.6-1.5l-4.4-10.4h1.8l3.6,8.9l3.2-8.9h1.7l-5.1,13.2c-0.2,0.5-0.5,0.9-0.9,1.2c-0.4,0.4-1,0.5-1.8,0.5
		c-0.1,0-0.2,0-0.4,0c-0.1,0-0.3,0-0.5-0.1V19.9z"/>
</g>
</svg>
