<svg xmlns="http://www.w3.org/2000/svg" viewBox="0 0 1440 780"><path d="M737.3 674.7c-2.1 2.1-4.5 3.7-7.2 4.5-2.6.9-5.3 1.3-8 1.1-2.7-.1-5.3-.8-7.8-1.9-2.5-1.1-4.8-2.7-6.7-4.6-2-2-3.6-4.3-4.7-6.9-1.1-2.6-1.7-5.2-1.8-7.9s.3-5.3 1.2-7.9c.9-2.6 2.4-4.9 4.5-7s4.6-3.6 7.2-4.5 5.4-1.2 8.1-1.1c2.7.2 5.3.8 7.8 2 2.5 1.1 4.7 2.6 6.6 4.5 2 2 3.6 4.3 4.7 6.9 1.1 2.6 1.7 5.2 1.8 7.9s-.3 5.3-1.2 7.9c-.9 2.7-2.4 5-4.5 7zm-27.5-3.1c1.7 1.7 3.7 3.1 5.9 4.1s4.5 1.6 6.8 1.7c2.3.1 4.6-.2 6.9-.9 2.2-.8 4.3-2 6.1-3.8 1.9-1.8 3.2-3.9 3.9-6.1.7-2.2 1-4.5.8-6.8s-.8-4.5-1.8-6.7-2.3-4.1-4-5.7c-1.7-1.7-3.7-3.1-5.9-4.1s-4.5-1.6-6.8-1.7c-2.3-.1-4.6.2-6.8.9s-4.2 2-6 3.8c-1.9 1.8-3.2 3.9-3.9 6.2s-1 4.6-.8 6.9c.2 2.3.8 4.6 1.8 6.7.8 2 2.1 3.9 3.8 5.5z"/></svg>