<svg xmlns="http://www.w3.org/2000/svg" viewBox="0 0 1440 780"><path d="M710 685.9c1.1 1.1 1.9 2.3 2.4 3.7s.7 2.8.7 4.3-.4 2.9-1 4.3-1.5 2.7-2.6 3.8L695 716.4l-30.2-30.1 14.4-14.3c1.1-1.1 2.3-1.8 3.6-2.2s2.7-.6 4-.5 2.6.5 3.9 1c1.3.6 2.3 1.3 3.3 2.3 1.5 1.5 2.5 3.3 3 5.4.5 2.1.3 4.1-.5 6 2.3-1.3 4.6-1.7 7.1-1.3 2.5.3 4.6 1.4 6.4 3.2zm-40.9.1l12.1 12 11.3-11.3c.8-.8 1.4-1.8 1.8-2.8.4-1 .5-2.1.5-3.1 0-1.1-.3-2.1-.7-3.1s-1.1-1.9-1.8-2.7c-.8-.8-1.7-1.5-2.7-1.9s-2-.7-3-.8-2 .1-3 .4c-1 .3-1.9.9-2.7 1.7L669.1 686zm38.4 1.8c-.8-.8-1.7-1.4-2.8-1.9-1-.5-2.1-.7-3.2-.8s-2.2.1-3.2.5c-1.1.4-2 1-2.8 1.8L683 699.8l12.4 12.3 12.2-12.2c.9-.9 1.5-1.8 1.9-2.9.4-1.1.6-2.2.5-3.3 0-1.1-.3-2.2-.7-3.2-.4-1-1-1.9-1.8-2.7z"/></svg>