<svg id="ABOUT_1_" xmlns="http://www.w3.org/2000/svg" viewBox="0 0 1440 780"><style>.st0{opacity:.502}.st1{fill-rule:evenodd;clip-rule:evenodd;fill:#08b2e0}</style><g id="ABOUT_2_"><path d="M614.4 696.4l2.2-2.2 72.4 28.1-2.7 2.7-25-9.7-25.8 25.7 9.7 24.9-2.8 2.7-28-72.2zm44 17.6l-39.8-15.6 15.5 39.8 24.3-24.2zM710 685.9c1.1 1.1 1.9 2.3 2.4 3.7.5 1.4.7 2.8.7 4.3s-.4 2.9-1 4.3-1.5 2.7-2.6 3.8L695 716.4l-30.2-30.1 14.4-14.3c1.1-1.1 2.3-1.8 3.6-2.2 1.3-.4 2.7-.6 4-.5 1.3.1 2.6.5 3.9 1 1.3.6 2.3 1.3 3.3 2.3 1.5 1.5 2.5 3.3 3 5.4.5 2.1.3 4.1-.5 6 2.3-1.3 4.6-1.7 7.1-1.3 2.5.3 4.6 1.4 6.4 3.2zm-40.9.1l12.1 12 11.3-11.3c.8-.8 1.4-1.8 1.8-2.8.4-1 .5-2.1.5-3.1 0-1.1-.3-2.1-.7-3.1-.4-1-1.1-1.9-1.8-2.7-.8-.8-1.7-1.5-2.7-1.9-1-.4-2-.7-3-.8-1-.1-2 .1-3 .4-1 .3-1.9.9-2.7 1.7L669.1 686zm38.4 1.8c-.8-.8-1.7-1.4-2.8-1.9-1-.5-2.1-.7-3.2-.8s-2.2.1-3.2.5c-1.1.4-2 1-2.8 1.8L683 699.8l12.4 12.3 12.2-12.2c.9-.9 1.5-1.8 1.9-2.9.4-1.1.6-2.2.5-3.3 0-1.1-.3-2.2-.7-3.2-.4-1-1-1.9-1.8-2.7zM737.3 674.7c-2.1 2.1-4.5 3.7-7.2 4.5-2.6.9-5.3 1.3-8 1.1-2.7-.1-5.3-.8-7.8-1.9-2.5-1.1-4.8-2.7-6.7-4.6-2-2-3.6-4.3-4.7-6.9-1.1-2.6-1.7-5.2-1.8-7.9-.1-2.7.3-5.3 1.2-7.9.9-2.6 2.4-4.9 4.5-7 2.1-2.1 4.6-3.6 7.2-4.5s5.4-1.2 8.1-1.1c2.7.2 5.3.8 7.8 2 2.5 1.1 4.7 2.6 6.6 4.5 2 2 3.6 4.3 4.7 6.9 1.1 2.6 1.7 5.2 1.8 7.9s-.3 5.3-1.2 7.9c-.9 2.7-2.4 5-4.5 7zm-27.5-3.1c1.7 1.7 3.7 3.1 5.9 4.1 2.2 1 4.5 1.6 6.8 1.7 2.3.1 4.6-.2 6.9-.9 2.2-.8 4.3-2 6.1-3.8 1.9-1.8 3.2-3.9 3.9-6.1.7-2.2 1-4.5.8-6.8-.2-2.3-.8-4.5-1.8-6.7s-2.3-4.1-4-5.7c-1.7-1.7-3.7-3.1-5.9-4.1-2.2-1-4.5-1.6-6.8-1.7-2.3-.1-4.6.2-6.8.9s-4.2 2-6 3.8c-1.9 1.8-3.2 3.9-3.9 6.2-.7 2.3-1 4.6-.8 6.9.2 2.3.8 4.6 1.8 6.7.8 2 2.1 3.9 3.8 5.5zM769.1 639.2c2.1-2.1 3.4-4.2 4.1-6.3.6-2.1.7-4.2.3-6.3-.4-2-1.3-4-2.5-5.9s-2.7-3.7-4.3-5.3l-15.2-15.1 2.2-2.2 15.2 15.1c2 2 3.7 4.2 5.1 6.4 1.4 2.3 2.3 4.6 2.7 7 .4 2.4.2 4.8-.6 7.3-.8 2.4-2.4 4.8-4.8 7.2-2.5 2.5-5 4.1-7.5 4.9-2.5.8-5 1-7.4.5-2.4-.4-4.8-1.3-7-2.7-2.2-1.4-4.3-3-6.2-5L728 623.7l2.2-2.2 15.2 15.1c1.7 1.7 3.5 3.1 5.4 4.4s3.9 2.1 6 2.5c2.1.4 4.1.3 6.3-.3 1.8-.7 3.9-2 6-4zM785.7 570l-11.3 11.3 28.2 28.1-2.2 2.2-28.2-28.1-11.3 11.3-2-1.9 24.9-24.7 1.9 1.8z"/></g><path class="st0 st1" d="M653.3 780h7.1l168.3-168.3-3.6-3.5z" id="シェイプ_1"/></svg>