<svg xmlns="http://www.w3.org/2000/svg" viewBox="0 0 872 162"><path d="M667.1 95c0 14.3 0 26 .7 32.1.5 4.4 1.2 7.2 6.1 7.8 2.1.4 5.6.7 7.1.7 1 0 1.2.7 1.2 1.2 0 .7-.7 1.2-2.5 1.2-8.5 0-18.5-.5-19.3-.5-.7 0-11.5.5-16.1.5-1.8 0-2.4-.4-2.4-1.2 0-.5.3-1 1.2-1 1.4 0 3.2-.4 4.6-.7 3.2-.7 4-3.7 4.5-8 .8-6.1.8-17.8.8-32.1V32.7l-22.5.4c-9.8.2-13.5 1.2-15.8 4.7-1.8 2.6-1.9 3.7-2.5 4.7-.4 1.2-.9 1.4-1.6 1.4-.4 0-1.1-.4-1.1-1.2 0-1.6 3.2-14.8 3.4-16 .3-.9 1.1-2.8 1.6-2.8 1.1 0 2.6 1.2 6.9 1.8 4.4.5 10.5.7 12.2.7h58.9c5.1 0 8.7-.4 11.2-.7 2.3-.4 3.7-.7 4.5-.7.7 0 .7.9.7 1.7 0 4.5-.5 15.2-.5 16.9 0 1.2-.7 1.9-1.4 1.9s-1-.5-1.2-2.6l-.2-1.6c-.5-4.5-3.9-7.8-18.8-8.2l-19.5-.4V95"/></svg>