<svg xmlns="http://www.w3.org/2000/svg" viewBox="0 0 872 162"><path d="M359.9 93.5c0 22.1.3 31.2 3.2 33.9 2.5 2.5 8.5 3.5 20.7 3.5 8.1 0 15.1-.2 18.8-4.6 1.9-2.3 3.2-5.5 3.7-8.5.2-1.1.7-1.9 1.6-1.9.7 0 1.1.7 1.1 2.3s-1.1 10.6-2.3 15.1c-1 3.5-1.6 4.1-9.9 4.1-11.2 0-19.9-.1-27.2-.5-7.1-.2-12.4-.3-17-.3-.7 0-3.4 0-6.4.2-3.2.2-6.5.3-9 .3-1.6 0-2.5-.3-2.5-1.2 0-.5.4-1.2 1.2-1.2 1.5 0 3.4-.4 4.8-.7 3-.7 3.4-3.5 4.1-8 .8-6.2.8-18.1.8-32.6V66.6c0-23.4 0-27.6-.3-32.4-.3-5.1-1.2-7.6-6.4-8.3-1.2-.1-3.9-.3-5.3-.3-.5 0-1.3-.7-1.3-1.3 0-.9.7-1.2 2.4-1.2 7.2 0 16.9.3 17.8.3.7 0 12.4-.3 17.2-.3 1.6 0 2.5.3 2.5 1.2 0 .5-.7 1-1.2 1-1.1 0-3.4.2-5.1.4-4.6.9-5.5 3.2-5.8 8.5-.2 4.8-.2 9-.2 32.4v26.9"/></svg>