<svg xmlns="http://www.w3.org/2000/svg" viewBox="0 0 872 162"><path d="M215.4 67.9c0-23.1 0-27.3-.4-32.1-.3-5.1-1.2-7.5-6.4-8.2-1.2-.2-3.9-.3-5.3-.3-.6 0-1.3-.7-1.3-1.2 0-.9.7-1.2 2.5-1.2 7.1 0 17.2.4 18.1.4 1.1 0 33.7.2 37.3 0 3-.2 5.9-.7 7.1-.9.7-.2 1.5-.7 2.2-.7.5 0 .7.7.7 1.4 0 1-.9 2.8-1.2 7-.1 1.4-.6 8.1-.9 9.8-.2.7-.7 1.6-1.4 1.6-.9 0-1.2-.7-1.2-1.9 0-1-.2-3.5-.9-5.3-1.1-2.5-2.6-3.5-11.2-4.6-2.6-.3-20.7-.5-22.5-.5-.7 0-.9.5-.9 1.6v33.5c0 1 0 1.5.9 1.5 1.9 0 22.5 0 26-.3 3.8-.4 6.1-.5 7.6-2.1 1.1-1.1 1.8-1.9 2.3-1.9s.9.4.9 1.2c0 .9-.9 3.3-1.3 8.2-.3 2.9-.7 8.6-.7 9.6 0 1.2-.4 2.8-1.4 2.8-.7 0-1-.5-1-1.4 0-1.4 0-3-.7-4.9-.5-2.1-1.9-3.8-8-4.6-4.3-.5-20.9-.7-23.5-.7-.9 0-1.1.5-1.1 1.1v19.5c0 5.1-.2 22.4 0 25.4.3 10 3.2 11.9 18.6 11.9 4.1 0 11.5 0 15.6-1.6 4.1-1.7 6.2-4.3 7.2-10.3.3-1.8.6-2.3 1.6-2.3.9 0 1.1 1.2 1.1 2.3s-1.2 11.2-2.1 14.4c-1 3.9-2.7 3.9-8.7 3.9-11.7 0-20.7-.4-27.1-.5-6.6-.3-10.6-.3-13-.3-.4 0-3.3 0-6.7.2-3.1.2-6.6.3-9 .3-1.7 0-2.5-.3-2.5-1.2 0-.5.3-1.2 1.2-1.2 1.5 0 3.4-.6 4.8-.7 3-.5 3.3-3.5 4.1-7.9.9-6.1.9-17.9.9-32.2V67.9"/></svg>