<svg xmlns="http://www.w3.org/2000/svg" viewBox="0 0 872 162"><path d="M510.8 29.9c1.9-4.8 2.6-5.7 3.7-5.7 1.6 0 2.1 2.1 3.7 5.4 2.8 6.2 27.9 67.1 37.4 89.4 5.7 13.2 9.9 15.1 13.3 16.1 2.3.7 4.6.9 6.2.9.9 0 2 .4 2 1.2 0 .9-1.8 1.2-3.6 1.2-2.3 0-13.8 0-24.6-.3-3-.2-5.5-.2-5.5-1.1 0-.7.4-.7 1.1-1.1.9-.3 2.5-1.5 1.4-4l-14.1-33.8c-.4-.7-.5-.9-1.4-.9h-36c-.7 0-1.3.4-1.6 1.2L484 122c-1.4 3.7-2.3 7.3-2.3 9.9 0 2.9 2.7 4 5.3 4h1.4c1.3 0 1.6.5 1.6 1.2 0 .9-.9 1.2-2.3 1.2-3.7 0-12.2-.5-14-.5-1.6 0-9.4.5-15.8.5-2 0-3-.3-3-1.2 0-.7.7-1.2 1.4-1.2 1.1 0 3.4-.1 4.6-.3 7.1-.9 10.1-6.1 13.1-13.6l36.8-92.1m17.4 61.4c.7 0 .7-.3.5-1l-15.4-40.4c-.8-2.3-1.7-2.3-2.6 0l-14.5 40.4c-.2.7 0 1 .5 1h31.5z"/></svg>