<svg id="レイヤー_1" xmlns="http://www.w3.org/2000/svg" viewBox="0 0 960 220"><style>.st0{fill:#FFF}</style><path class="st0" d="M170 135.3c0-16.6-1.1-18.9-9.6-21.2-1.7-.4-5.3-.6-7.3-.6-.9 0-1.7-.4-1.7-1.2 0-1.2 1.1-1.6 3.4-1.6 9.5 0 22.9.6 24 .6 1.1 0 14.5-.6 20.9-.6 2.4 0 3.4.4 3.4 1.7 0 .8-.8 1.2-1.7 1.2-1.4 0-2.7.2-5.3.6-5.7 1-7.4 4.5-7.9 11.7-.4 6.6-.4 12.8-.4 21.4v23c0 9.3-.2 9.7-2.8 11.1-13.6 7-32.8 9.3-45.1 9.3-16.2 0-46.4-2.1-69.9-22-13-10.9-25.3-32.9-25.3-58.6 0-32.9 16.6-56.2 35.5-67.7 19.1-11.5 40.2-13 56.5-13 13.4 0 28.5 2.7 32.6 3.5 4.4 1 11.9 1.9 17.2 2.1 2.2.2 2.6 1 2.6 1.8 0 2.9-1.5 8.7-1.5 29.2 0 3.3-.4 4.3-1.9 4.3-1 0-1.3-1.2-1.5-3.1-.3-2.9-1.3-8.6-4.5-13.6-5.3-7.8-22.5-16.6-50-16.6-13.4 0-29.3 1.2-45.5 13.6-12.3 9.5-21 28.2-21 52.3 0 29 15.1 49.9 22.5 57 16.8 15.8 36.1 22 55.7 22 7.7 0 18.7-1.2 24.2-4.3 2.8-1.4 4.3-3.7 4.3-7.2v-35.1M856.2 53.8c-32.6 0-59 25.6-59 57.1s26.4 57.1 59 57.1 59-25.6 59-57.1c.1-31.5-26.3-57.1-59-57.1m0 109.7c-23.3 0-42.2-23.5-42.2-52.6s18.9-52.6 42.2-52.6c23.3 0 42.2 23.5 42.2 52.6.1 29.1-18.8 52.6-42.2 52.6M259.4 96.9c0-23.1 0-27.3-.4-32.1-.3-5.1-1.2-7.5-6.4-8.2-1.2-.2-3.9-.3-5.3-.3-.6 0-1.3-.7-1.3-1.2 0-.9.7-1.2 2.5-1.2 7.1 0 17.2.4 18.1.4 1.1 0 33.7.2 37.3 0 3-.2 5.9-.7 7.1-.9.7-.2 1.5-.7 2.2-.7.5 0 .7.7.7 1.4 0 1-.9 2.8-1.2 7-.1 1.4-.6 8.1-.9 9.8-.2.7-.7 1.6-1.4 1.6-.9 0-1.2-.7-1.2-1.9 0-1-.2-3.5-.9-5.3-1.1-2.5-2.6-3.5-11.2-4.6-2.6-.3-20.7-.5-22.5-.5-.7 0-.9.5-.9 1.6v33.5c0 1 0 1.5.9 1.5 1.9 0 22.5 0 26-.3 3.8-.4 6.1-.5 7.6-2.1 1.1-1.1 1.8-1.9 2.3-1.9.5 0 .9.4.9 1.2 0 .9-.9 3.3-1.3 8.2-.3 2.9-.7 8.6-.7 9.6 0 1.2-.4 2.8-1.4 2.8-.7 0-1-.5-1-1.4 0-1.4 0-3-.7-4.9-.5-2.1-1.9-3.8-8-4.6-4.3-.5-20.9-.7-23.5-.7-.9 0-1.1.5-1.1 1.1v19.5c0 5.1-.2 22.4 0 25.4.3 10 3.2 11.9 18.6 11.9 4.1 0 11.5 0 15.6-1.6 4.1-1.7 6.2-4.3 7.2-10.3.3-1.8.6-2.3 1.6-2.3.9 0 1.1 1.2 1.1 2.3 0 1.1-1.2 11.2-2.1 14.4-1 3.9-2.7 3.9-8.7 3.9-11.7 0-20.7-.4-27.1-.5-6.6-.3-10.6-.3-13-.3-.4 0-3.3 0-6.7.2-3.1.2-6.6.3-9 .3-1.7 0-2.5-.3-2.5-1.2 0-.5.3-1.2 1.2-1.2 1.5 0 3.4-.6 4.8-.7 3-.5 3.3-3.5 4.1-7.9.9-6.1.9-17.9.9-32.2V96.9M403.9 122.5c0 22.1.3 31.2 3.2 33.9 2.5 2.5 8.5 3.5 20.7 3.5 8.1 0 15.1-.2 18.8-4.6 1.9-2.3 3.2-5.5 3.7-8.5.2-1.1.7-1.9 1.6-1.9.7 0 1.1.7 1.1 2.3 0 1.6-1.1 10.6-2.3 15.1-1 3.5-1.6 4.1-9.9 4.1-11.2 0-19.9-.1-27.2-.5-7.1-.2-12.4-.3-17-.3-.7 0-3.4 0-6.4.2-3.2.2-6.5.3-9 .3-1.6 0-2.5-.3-2.5-1.2 0-.5.4-1.2 1.2-1.2 1.5 0 3.4-.4 4.8-.7 3-.7 3.4-3.5 4.1-8 .8-6.2.8-18.1.8-32.6V95.6c0-23.4 0-27.6-.3-32.4-.3-5.1-1.2-7.6-6.4-8.3-1.2-.1-3.9-.3-5.3-.3-.5 0-1.3-.7-1.3-1.3 0-.9.7-1.2 2.4-1.2 7.2 0 16.9.3 17.8.3.7 0 12.4-.3 17.2-.3 1.6 0 2.5.3 2.5 1.2 0 .5-.7 1-1.2 1-1.1 0-3.4.2-5.1.4-4.6.9-5.5 3.2-5.8 8.5-.2 4.8-.2 9-.2 32.4v26.9M554.8 58.9c1.9-4.8 2.6-5.7 3.7-5.7 1.6 0 2.1 2.1 3.7 5.4 2.8 6.2 27.9 67.1 37.4 89.4 5.7 13.2 9.9 15.1 13.3 16.1 2.3.7 4.6.9 6.2.9.9 0 2 .4 2 1.2 0 .9-1.8 1.2-3.6 1.2-2.3 0-13.8 0-24.6-.3-3-.2-5.5-.2-5.5-1.1 0-.7.4-.7 1.1-1.1.9-.3 2.5-1.5 1.4-4l-14.1-33.8c-.4-.7-.5-.9-1.4-.9h-36c-.7 0-1.3.4-1.6 1.2L528 151c-1.4 3.7-2.3 7.3-2.3 9.9 0 2.9 2.7 4 5.3 4h1.4c1.3 0 1.6.5 1.6 1.2 0 .9-.9 1.2-2.3 1.2-3.7 0-12.2-.5-14-.5-1.6 0-9.4.5-15.8.5-2 0-3-.3-3-1.2 0-.7.7-1.2 1.4-1.2 1.1 0 3.4-.1 4.6-.3 7.1-.9 10.1-6.1 13.1-13.6l36.8-92.1m17.4 61.4c.7 0 .7-.3.5-1l-15.4-40.4c-.8-2.3-1.7-2.3-2.6 0l-14.5 40.4c-.2.7 0 1 .5 1h31.5zM711.1 124c0 14.3 0 26 .7 32.1.5 4.4 1.2 7.2 6.1 7.8 2.1.4 5.6.7 7.1.7 1 0 1.2.7 1.2 1.2 0 .7-.7 1.2-2.5 1.2-8.5 0-18.5-.5-19.3-.5-.7 0-11.5.5-16.1.5-1.8 0-2.4-.4-2.4-1.2 0-.5.3-1 1.2-1 1.4 0 3.2-.4 4.6-.7 3.2-.7 4-3.7 4.5-8 .8-6.1.8-17.8.8-32.1V61.7l-22.5.4c-9.8.2-13.5 1.2-15.8 4.7-1.8 2.6-1.9 3.7-2.5 4.7-.4 1.2-.9 1.4-1.6 1.4-.4 0-1.1-.4-1.1-1.2 0-1.6 3.2-14.8 3.4-16 .3-.9 1.1-2.8 1.6-2.8 1.1 0 2.6 1.2 6.9 1.8 4.4.5 10.5.7 12.2.7h58.9c5.1 0 8.7-.4 11.2-.7 2.3-.4 3.7-.7 4.5-.7.7 0 .7.9.7 1.7 0 4.5-.5 15.2-.5 16.9 0 1.2-.7 1.9-1.4 1.9s-1-.5-1.2-2.6l-.2-1.6c-.5-4.5-3.9-7.8-18.8-8.2l-19.5-.4V124"/></svg>