<svg id="レイヤー_1" xmlns="http://www.w3.org/2000/svg" xmlns:xlink="http://www.w3.org/1999/xlink" viewBox="0 0 65 95" x="20px" y="20px" height="20px" width="20px">
    <style>
        .st0 {
            clip-path: url("#SVGID_2_");
        }
        .st1 {
            fill: #ed3d3d;
        }
        .st2 {
            fill: #f39800;
        }
        .st3 {
            fill: #ffd400;
        }
        .st4 {
            fill: green;
        }
        .st5 {
            fill: #afdfe4;
        }
        .st6 {
            fill: #0067bf;
        }
        .st7 {
            fill: #a757a8;
        }
    </style><path
        d="M3.5 92.8H1.3V92h.5v-7.4h-.5v-.8h2.2v.8h-.6V92h.6v.8zm12-7.4c-.8-.6-1.4-.8-2.3-.8-1.2 0-1.8.5-1.8 1.4 0 .8.4 1.1 2.3 1.6s2.7 1.3 2.7 2.7c0 1.6-1.3 2.6-3.3 2.6-1.3 0-2.2-.3-3.2-1.1l.6-1c.9.7 1.7 1 2.7 1 1.3 0 2-.6 2-1.5s-.4-1.2-2.1-1.6c-2.1-.6-3-1.3-3-2.6 0-1.5 1.2-2.5 3.1-2.5 1.1 0 1.9.2 2.7.8l-.4 1zm8.2 6.8c-.7.5-1.3.7-2.1.7-1 0-1.9-.3-2.4-.9-.5-.6-.8-1.5-.8-2.5 0-2.2 1.2-3.5 3.2-3.5.9 0 1.3.2 2.1.8l-.7.8c-.5-.4-1-.6-1.5-.6-1.3 0-2 .9-2 2.5s.7 2.5 2 2.5c.6 0 1.1-.2 1.6-.6l.6.8zm5.9-5.2h-.3c-1 0-1.8.6-2.3 1.7v4.1h-1.1v-6.7h1v1.2c.6-1 1.3-1.4 2.4-1.4h.4l-.1 1.1zm2.7 2.7c.1.6.1.9.3 1.2.3.6.9.9 1.8.9.7 0 1.1-.2 1.7-.6l.6.9c-.7.5-1.3.7-2.3.7-2 0-3.2-1.2-3.2-3.4s1.1-3.5 3-3.5c1.3 0 2.1.6 2.5 1.8.1.5.2 1 .2 1.9l-4.6.1zm3.4-1c-.1-1.3-.6-1.8-1.6-1.8s-1.5.5-1.7 1.8h3.3zm3.8-2.3c.8-.3 1.5-.4 2.3-.4 1.7 0 2.4.8 2.4 2.7v4.1h-1v-.5c-.6.5-1.1.6-1.9.6-1.5 0-2.4-.8-2.4-2.1 0-1.5 1.2-2.2 3.5-2.2h.7c0-1.2-.4-1.6-1.4-1.6-.7 0-1.3.2-2 .5l-.2-1.1zm3.6 3.1h-.7c-1.7 0-2.4.4-2.4 1.2 0 .7.5 1.1 1.3 1.1.7 0 1.2-.2 1.8-.6v-1.7zm4.8-2.9c.6-.5 1.1-.6 1.9-.6.9 0 1.5.3 1.8.9.7-.7 1.4-.9 2.3-.9 1.5 0 2.2.9 2.2 2.9v3.9H55v-3.9c0-1.4-.4-1.9-1.3-1.9-.7 0-1.2.3-1.8.9.1.3.1.6.1 1v3.9h-1.1v-3.9c0-1.3-.4-1.9-1.3-1.9-.7 0-1.2.2-1.7.8v5.1h-1.1v-6.7h1l.1.4zm13.5 6.2l-1.6-.5.4-1.6 1.6.5-.4 1.6zm2.3-8.7l-1.9 6.1-1.1-.3 1.5-6.2 1.5.4z"/>
    <defs><path
        id="SVGID_1_"
        d="M48.8 34.7c.4 0 .8-.7.8-1.6s-.3-1.6-.7-1.6-1.4-.5-2.2-1.1c0 0-1.5-1.1-.8-2.1.6-1 1.3-3.8-.4-5.5-1.9-1.8-4.3-1-2.4-3.7s-5.2-5.7-6-11.5c-.9-5.8-6-6-8.6-5.1-2.6 1-2.6 2.7-2.4 4.3.2 1.6 1.3-2.3 3.9-2.5 2.6-.2 2.8 2.5-.4 5.3-3.2 2.7-3.9 2.5-7.3 4.7s0 5.9-1.3 6.4c-4.1 1.9-2.8 4.5-2.6 6.8.2 2.1-.5 2.7-.5 2.7-.8.7-1.6 1.2-1.9 1.2-.3 0-.5.7-.5 1.6s.4 1.6.8 1.6 1.1.8 1.4 1.8l3.9 11.8c.3 1 .6 1.8.6 1.8v1.6c0 .9.3 1.6.6 1.6s.8.8 1.1 1.8v.1c.3 1 .9 2.6 1.2 3.6L32 79.5c.3 1 .9 1 1.2 0L40 58.8c.3-1 .9-2.6 1.2-3.6v-.1c.3-1 .8-1.8 1.1-1.8.3 0 .5-.7.5-1.6v-1.6s.3-.8.6-1.8l3.9-11.8c.4-1 1.1-1.8 1.5-1.8"/></defs>
    <clipPath id="SVGID_2_"><use xlink:href="#SVGID_1_" overflow="visible"/></clipPath>
    <g class="st0"><path class="st1" d="M-8.1.8h81.2v11.6H-8.1V.8z"/><path class="st2" d="M-8.1 12.4h81.2V24H-8.1V12.4z"/><path class="st3" d="M-8.1 24h81.2v11.6H-8.1V24z"/><path class="st4" d="M-8.1 35.6h81.2v11.6H-8.1V35.6z"/><path class="st5" d="M-8.1 47.1h81.2v11.6H-8.1V47.1z"/><path class="st6" d="M-8.1 58.7h81.2v11.6H-8.1V58.7z"/><path class="st7" d="M-8.1 70.3h81.2v11.6H-8.1V70.3z"/></g>
</svg>
