<?xml version="1.0" encoding="utf-8"?>
<!-- Generator: Adobe Illustrator 19.2.1, SVG Export Plug-In . SVG Version: 6.00 Build 0)  -->
<svg version="1.1" id="レイヤー_1" xmlns="http://www.w3.org/2000/svg" xmlns:xlink="http://www.w3.org/1999/xlink" x="0px"
	 y="0px" viewBox="0 0 1440 124" style="enable-background:new 0 0 1440 124;" xml:space="preserve">
<style type="text/css">
	.st0{clip-path:url(#SVGID_2_);}
	.st1{clip-path:url(#SVGID_4_);fill:url(#SVGID_5_);}
	.st2{clip-path:url(#SVGID_7_);fill:url(#SVGID_8_);}
	.st3{clip-path:url(#SVGID_10_);fill:url(#SVGID_11_);}
	.st4{clip-path:url(#SVGID_13_);fill:url(#SVGID_14_);}
	.st5{clip-path:url(#SVGID_16_);fill:url(#SVGID_17_);}
	.st6{clip-path:url(#SVGID_19_);fill:url(#SVGID_20_);}
	.st7{clip-path:url(#SVGID_22_);}
	.st8{clip-path:url(#SVGID_24_);fill:url(#SVGID_25_);}
	.st9{clip-path:url(#SVGID_27_);}
	.st10{clip-path:url(#SVGID_29_);fill:url(#SVGID_30_);}
</style>
<g>
	<g>
		<defs>
			<rect id="SVGID_1_" x="-0.9" y="0" width="1441.9" height="124"/>
		</defs>
		<clipPath id="SVGID_2_">
			<use xlink:href="#SVGID_1_"  style="overflow:visible;"/>
		</clipPath>
		<g class="st0">
			<defs>
				<path id="SVGID_3_" d="M155.8,58.7c-53.9,0-106.3-0.8-156.7-2.6V10.5h1441.9v12.7c-177.7-9.3-426.9,3.4-689.3,16.1
					C552.2,49.1,345.1,58.7,155.8,58.7C155.8,58.7,155.8,58.7,155.8,58.7"/>
			</defs>
			<clipPath id="SVGID_4_">
				<use xlink:href="#SVGID_3_"  style="overflow:visible;"/>
			</clipPath>
			
				<linearGradient id="SVGID_5_" gradientUnits="userSpaceOnUse" x1="316.5608" y1="683.2486" x2="318.7422" y2="683.2486" gradientTransform="matrix(34.7189 -217.7768 -217.7768 -34.7189 138481.3438 92969.9141)">
				<stop  offset="0" style="stop-color:#FFFFFF"/>
				<stop  offset="1" style="stop-color:#009FE8"/>
			</linearGradient>
			<polygon class="st1" points="-59.8,57.5 34.8,-18 1499.8,11.7 1405.2,87.3 			"/>
		</g>
		<g class="st0">
			<defs>
				<path id="SVGID_6_" d="M155.8,58.7c-53.9,0-106.3-0.8-156.7-2.6V10.5h1441.9v12.7c-177.7-9.3-426.9,3.4-689.3,16.1
					C552.2,49.1,345.1,58.7,155.8,58.7C155.8,58.7,155.8,58.7,155.8,58.7"/>
			</defs>
			<clipPath id="SVGID_7_">
				<use xlink:href="#SVGID_6_"  style="overflow:visible;"/>
			</clipPath>
			
				<linearGradient id="SVGID_8_" gradientUnits="userSpaceOnUse" x1="317.9155" y1="683.1835" x2="322.636" y2="683.1835" gradientTransform="matrix(365.4216 -92.0127 -92.0127 -365.4216 -53437.0039 279149.7812)">
				<stop  offset="0" style="stop-color:#FFFFFF"/>
				<stop  offset="1" style="stop-color:#009FE8"/>
			</linearGradient>
			<polygon class="st2" points="-90.5,13.4 1355,-33 1530.5,55.9 85,102.2 			"/>
		</g>
		<g class="st0">
			<defs>
				<path id="SVGID_9_" d="M155.8,58.7c-50,0-98.9-0.7-146-2.2c0,0-0.1,0-0.2,0c-0.3,0-0.7,0-1,0c-0.1,0-0.1,0-0.2,0
					c-0.4,0-0.8,0-1.1,0c0,0-0.1,0-0.1,0c-0.3,0-0.7,0-1,0c-0.1,0-0.2,0-0.4,0c-0.2,0-0.5,0-0.7,0c-0.1,0-0.3,0-0.4,0
					c-0.2,0-0.5,0-0.7,0c-0.2,0-0.4,0-0.5,0c-0.3,0-0.6,0-0.8,0c-0.2,0-0.4,0-0.5,0c-0.2,0-0.3,0-0.5,0c-0.2,0-0.4,0-0.6,0
					c-0.1,0-0.3,0-0.4,0c-0.2,0-0.4,0-0.7,0c-0.1,0-0.1,0-0.2,0c-0.3,0-0.6,0-0.8,0V0h1441.9v23.3c-4.5-0.2-9.1-0.5-13.7-0.7
					c0,0,0,0,0,0c-0.3,0-0.5,0-0.8,0c0,0-0.1,0-0.2,0c-0.2,0-0.5,0-0.7,0c-0.1,0-0.2,0-0.3,0c-0.2,0-0.4,0-0.6,0c-0.2,0-0.3,0-0.5,0
					c-0.2,0-0.4,0-0.6,0c-0.3,0-0.5,0-0.8,0c-0.1,0-0.2,0-0.3,0c-0.2,0-0.5,0-0.7,0c-0.1,0-0.2,0-0.2,0c-0.3,0-0.5,0-0.8,0
					c-0.1,0-0.1,0-0.2,0c-167.5-7-392.9,3.7-631.7,15.3c-1,0-2,0.1-3,0.1c-0.3,0-0.6,0-0.9,0c-8.6,0.4-17.3,0.8-26,1.3
					c-0.2,0-0.4,0-0.7,0c-0.6,0-1.2,0.1-1.8,0.1c-0.3,0-0.7,0-1,0c-0.4,0-0.7,0-1,0.1c-0.2,0-0.4,0-0.6,0c-0.8,0-1.5,0.1-2.2,0.1
					c-0.6,0-1.2,0.1-1.8,0.1c-185.6,9-377.8,18-556,19.1C181,58.7,168.4,58.7,155.8,58.7C155.8,58.7,155.8,58.7,155.8,58.7"/>
			</defs>
			<clipPath id="SVGID_10_">
				<use xlink:href="#SVGID_9_"  style="overflow:visible;"/>
			</clipPath>
			
				<linearGradient id="SVGID_11_" gradientUnits="userSpaceOnUse" x1="312.6219" y1="683.3021" x2="314.8951" y2="683.3021" gradientTransform="matrix(-17.8123 -89.0618 -89.0618 17.8123 67160.75 15781.4375)">
				<stop  offset="0" style="stop-color:#FFFFFF"/>
				<stop  offset="1" style="stop-color:#009FE8"/>
			</linearGradient>
			<polygon class="st3" points="54.5,94.1 -89.6,2.3 1385.5,-35.3 1529.6,56.5 			"/>
		</g>
		<g class="st0">
			<defs>
				<path id="SVGID_12_" d="M-0.9,29.5V0h1441.9v13.8C1262.8,7.9,1013,14.6,750,21.4c-192.3,4.9-391.6,9.9-575.3,9.9
					C114.2,31.3,55.4,30.7-0.9,29.5"/>
			</defs>
			<clipPath id="SVGID_13_">
				<use xlink:href="#SVGID_12_"  style="overflow:visible;"/>
			</clipPath>
			
				<linearGradient id="SVGID_14_" gradientUnits="userSpaceOnUse" x1="317.3367" y1="686.0569" x2="321.8761" y2="686.0569" gradientTransform="matrix(-425.241 21.5615 21.5615 425.241 121761.6641 -298611.2812)">
				<stop  offset="0" style="stop-color:#FFFFFF"/>
				<stop  offset="1" style="stop-color:#009FE8"/>
			</linearGradient>
			<polygon class="st4" points="1453.4,31.2 2.8,40.6 -13.4,0.1 1437.2,-9.3 			"/>
		</g>
		<g class="st0">
			<defs>
				<path id="SVGID_15_" d="M10.8,118.4C10.8,118.4,10.7,118.4,10.8,118.4c-0.4,0-0.7,0-1,0c0,0,0,0,0,0c-0.3,0-0.6,0-0.9,0
					c-0.1,0-0.2,0-0.3,0c-0.2,0-0.4,0-0.6,0c-0.2,0-0.3,0-0.5,0c-0.2,0-0.3,0-0.5,0c-0.2,0-0.4,0-0.5,0c-0.1,0-0.1,0-0.2,0
					c-2.4,0-4.8-0.1-7.2-0.1V79.9c223.6,4.8,484.9-11.1,735-27.1c269-17.1,525-34.2,706.9-25.6v3c-179.2-6.3-430.5,18.6-695.2,43.5
					c-0.7,0.1-1.3,0.1-2,0.2c-0.6,0.1-1.2,0.1-1.8,0.2c-45.1,4.2-90.7,8.5-136.3,12.6c-0.1,0-0.3,0-0.4,0c-0.8,0.1-1.6,0.1-2.4,0.2
					c-0.2,0-0.3,0-0.5,0c-0.8,0.1-1.5,0.1-2.3,0.2c-0.2,0-0.4,0-0.6,0.1c-0.6,0.1-1.2,0.1-1.8,0.2c-190.9,17-383.3,31.2-555.8,31.2
					C31.5,118.5,21.1,118.5,10.8,118.4"/>
			</defs>
			<clipPath id="SVGID_16_">
				<use xlink:href="#SVGID_15_"  style="overflow:visible;"/>
			</clipPath>
			
				<linearGradient id="SVGID_17_" gradientUnits="userSpaceOnUse" x1="317.1628" y1="683.2244" x2="318.7784" y2="683.2244" gradientTransform="matrix(34.7189 -217.7768 -217.7768 -34.7189 138481.3438 92969.9141)">
				<stop  offset="0" style="stop-color:#FFFFFF"/>
				<stop  offset="1" style="stop-color:#009FE8"/>
			</linearGradient>
			<polygon class="st5" points="-123,116.1 34.8,-10 1563,21 1405.2,147.1 			"/>
		</g>
		<g class="st0">
			<defs>
				<path id="SVGID_18_" d="M-0.9,100.6V79.9c223.6,4.8,484.9-11.1,735-27.1c269-17.1,525-34.2,706.9-25.6v2.8
					c-180.6-7.4-434.4,13.7-701.4,34.8c-229.6,18.2-469.1,36.3-680.3,36.3C38.9,101.1,18.8,100.9-0.9,100.6"/>
			</defs>
			<clipPath id="SVGID_19_">
				<use xlink:href="#SVGID_18_"  style="overflow:visible;"/>
			</clipPath>
			
				<linearGradient id="SVGID_20_" gradientUnits="userSpaceOnUse" x1="317.97" y1="683.1187" x2="322.8278" y2="683.1187" gradientTransform="matrix(365.4216 -92.0127 -92.0127 -365.4216 -53437.0039 279149.7812)">
				<stop  offset="0" style="stop-color:#FFFFFF"/>
				<stop  offset="1" style="stop-color:#009FE8"/>
			</linearGradient>
			<polygon class="st6" points="-154.3,23.5 1355,-24.9 1594.3,96.2 85,144.6 			"/>
		</g>
		<g class="st0">
			<defs>
				<path id="SVGID_21_" d="M-0.9,118.2V79.9c223.6,4.8,484.9-11.1,735-27.1c269-17.1,525-34.2,706.9-25.6v3
					c-179.7-6.3-431.7,18.7-697.2,43.7c-237.2,22.3-485.2,44.7-701.8,44.7C27.5,118.5,13.2,118.4-0.9,118.2"/>
			</defs>
			<clipPath id="SVGID_22_">
				<use xlink:href="#SVGID_21_"  style="overflow:visible;"/>
			</clipPath>
			<g class="st7">
				<defs>
					<path id="SVGID_23_" d="M1523.7,29.9V-0.6H-83.7v52.7C418.4,83.4,1178.8-9.3,1523.7,29.9"/>
				</defs>
				<clipPath id="SVGID_24_">
					<use xlink:href="#SVGID_23_"  style="overflow:visible;"/>
				</clipPath>
				
					<linearGradient id="SVGID_25_" gradientUnits="userSpaceOnUse" x1="312.9406" y1="683.3187" x2="314.9294" y2="683.3187" gradientTransform="matrix(-17.8123 -89.0618 -89.0618 17.8123 67160.75 15781.4375)">
					<stop  offset="0" style="stop-color:#FFFFFF"/>
					<stop  offset="1" style="stop-color:#009FE8"/>
				</linearGradient>
				<polygon class="st8" points="-21.9,122.8 -223.6,-5.7 1461.9,-48.6 1663.6,79.9 				"/>
			</g>
		</g>
		<g class="st0">
			<defs>
				<path id="SVGID_26_" d="M-0.9,118.2V79.9c223.6,4.8,484.9-11.1,735-27.1c269-17.1,525-34.2,706.9-25.6v3
					c-179.7-6.3-431.7,18.7-697.2,43.7c-237.2,22.3-485.2,44.7-701.8,44.7C27.5,118.5,13.2,118.4-0.9,118.2"/>
			</defs>
			<clipPath id="SVGID_27_">
				<use xlink:href="#SVGID_26_"  style="overflow:visible;"/>
			</clipPath>
			<g class="st9">
				<defs>
					<path id="SVGID_28_" d="M1523.7,17.8V-0.6H-83.7V27C418.4,45.9,1178.8-5.8,1523.7,17.8"/>
				</defs>
				<clipPath id="SVGID_29_">
					<use xlink:href="#SVGID_28_"  style="overflow:visible;"/>
				</clipPath>
				
					<linearGradient id="SVGID_30_" gradientUnits="userSpaceOnUse" x1="317.3257" y1="686.0673" x2="321.8811" y2="686.0673" gradientTransform="matrix(-425.241 21.5615 21.5615 425.241 121761.6641 -298611.2812)">
					<stop  offset="0" style="stop-color:#FFFFFF"/>
					<stop  offset="1" style="stop-color:#009FE8"/>
				</linearGradient>
				<polygon class="st10" points="1544.2,45.8 -79.6,56.3 -104.2,-5.7 1519.6,-16.2 				"/>
			</g>
		</g>
	</g>
</g>
</svg>
