<svg id="レイヤー_1" xmlns="http://www.w3.org/2000/svg" xmlns:xlink="http://www.w3.org/1999/xlink" viewBox="0 0 500 500"><style>.st0{fill:url(#SVGID_3_)}.st0,.st1{clip-path:url(#SVGID_2_)}.st2{fill:#FFF}</style><defs><path id="SVGID_1_" d="M405 500H95c-52.2 0-95-42.8-95-95V95C0 42.8 42.8 0 95 0h310c52.2 0 95 42.8 95 95v310c0 52.2-42.8 95-95 95z"/></defs><clipPath id="SVGID_2_"><use xlink:href="#SVGID_1_" overflow="visible"/></clipPath><linearGradient id="SVGID_3_" gradientUnits="userSpaceOnUse" x1="173.874" y1="-37.065" x2="328.72" y2="540.827" gradientTransform="matrix(1 0 0 -1 0 500)"><stop offset="0" stop-color="#fccb61"/><stop offset=".061" stop-color="#fab857"/><stop offset=".184" stop-color="#f5863e"/><stop offset=".241" stop-color="#f26d31"/><stop offset=".256" stop-color="#f06737"/><stop offset=".343" stop-color="#e44d54"/><stop offset=".43" stop-color="#dc3968"/><stop offset=".515" stop-color="#d72e75"/><stop offset=".598" stop-color="#d52a79"/><stop offset=".779" stop-color="#9f4a91"/><stop offset=".872" stop-color="#89589b"/><stop offset=".925" stop-color="#7b5ba2"/><stop offset="1" stop-color="#6c5fa9"/></linearGradient><path class="st0" d="M175.5 500.3h149.9C529 500.3 500 541 500 323.1V173.6C500-40 541 .3 326.7.3H174.2C-30 .3 0-24 0 174.4v147.7C0 530-27 500.3 175.5 500.3z"/><g class="st1"><path class="st2" d="M326.9 70.2H173.1c-57 0-103.2 46.2-103.2 103.2v153.8c0 57 46.2 103.2 103.2 103.2h153.8c57 0 103.2-46.2 103.2-103.2V173.4c0-57-46.2-103.2-103.2-103.2zm72.9 244.1c0 47.4-38.4 85.9-85.9 85.9H186c-47.4 0-85.9-38.4-85.9-85.9v-128c0-47.4 38.4-85.9 85.9-85.9h128c47.4 0 85.9 38.4 85.9 85.9v128h-.1z"/><path class="st2" d="M250.9 159.3c-50.8 0-91.9 41.1-91.9 91.9s41.1 91.9 91.9 91.9 91.9-41.1 91.9-91.9-41.1-91.9-91.9-91.9zm0 150.5c-32.4 0-58.6-26.2-58.6-58.6s26.2-58.6 58.6-58.6 58.6 26.2 58.6 58.6-26.2 58.6-58.6 58.6z"/><circle class="st2" cx="345.7" cy="155.5" r="23.4"/></g></svg>