<svg xmlns="http://www.w3.org/2000/svg" viewBox="0 0 800 127"><path d="M114.1 107h-22v-8.1h5.4V25.7h-5.4v-8.1h22v8.1h-5.5v73.2h5.5v8.1zM232.9 34.5c-7.8-5.5-14-7.7-22.8-7.7-11.7 0-18.1 4.8-18.1 13.4 0 7.8 4.4 10.8 22.7 15.7 19 4.9 26.8 12.6 26.8 26.2 0 16.1-12.5 26-32.7 26-13 0-21.6-2.8-31.8-10.5l6.1-10.1c8.8 7.2 16.6 10.1 27 10.1 12.4 0 19.9-5.5 19.9-14.7 0-8.6-3.8-11.5-20.5-16-20.9-5.6-29.1-12.9-29.1-25.9 0-15.2 11.9-24.7 30.6-24.7 10.9 0 18.7 2.3 27.1 8.1l-5.2 10.1zM312.9 101.2c-6.8 5-12.8 7-20.9 7-9.8 0-18.4-3.4-23.6-9.3-4.8-5.6-7.8-14.9-7.8-24.8 0-21.3 12-34.2 31.6-34.2 8.6 0 13.3 1.7 20.4 7.6l-6.4 8.7c-5.1-4.7-9.3-6.5-15.1-6.5-12.5 0-19.4 8.6-19.4 24.3 0 15.8 7.1 24.3 20 24.3 6.1 0 10.8-1.8 15.7-5.7l5.5 8.6zM371.7 50.3c-1.4-.1-2.1-.1-3.3-.1-9.7 0-17.4 5.5-23 16.5V107H335V41h9.9v12.2c5.9-9.5 12.8-13.4 23.7-13.4 1.6 0 2.2 0 3.9.1l-.8 10.4zM398.1 76.9c.6 6.4 1.2 9 3 12.3 3.4 6 9.2 9.1 17.4 9.1 6.5 0 11.3-1.7 16.5-5.7l5.5 8.6c-7.2 5.1-13.2 7-22.4 7-19.8 0-31.1-12.3-31.1-34 0-21.4 10.9-34.3 29.1-34.3 12.4 0 20.8 6.1 24.5 18.2 1.4 4.8 1.9 9.6 2.2 18.8h-44.7zm33-9.7c-1.3-12.7-5.6-17.6-15.6-17.6s-15.1 5.3-17.1 17.6h32.7zM468.8 44.1c7.8-3 14.7-4.3 22.3-4.3 16.5 0 23.6 7.9 23.6 26.5V107h-9.9v-5.2c-5.5 4.5-11.2 6.3-19.2 6.3-14.6 0-23.2-7.8-23.2-21 0-14.7 11.4-21.9 34.5-21.9h7.3c-.3-11.5-3.9-15.5-13.6-15.5-6.8 0-12.7 1.5-19.4 4.8l-2.4-10.4zm35.5 30.6H497c-16.6 0-23.5 3.5-23.5 12.2 0 7.3 4.6 11.3 13.3 11.3 6.5 0 12-1.9 17.6-6V74.7zM551.4 46.1c5.9-4.5 11.1-6.2 18.3-6.2 9.2 0 14.3 2.6 18.2 9.3 7-6.5 14-9.3 22.4-9.3 14.8 0 21.8 9.3 21.8 28.3V107h-10.4V68.4c0-13.4-3.7-18.7-13.1-18.7-7 0-12.1 2.6-17.4 8.8.6 3.2.8 6.3.8 9.8V107h-10.4V68.1c0-13.2-3.9-18.4-13.1-18.4-6.5 0-11.4 2.3-16.4 7.4V107h-10.5V41h9.9v5.1z"/></svg>