<svg id="レイヤー_1" xmlns="http://www.w3.org/2000/svg" xmlns:xlink="http://www.w3.org/1999/xlink" viewBox="0 0 615.8 895.1"><style>.st0{display:none}.st1{clip-path:url(#SVGID_2_)}.st2{fill:#ed3d3d}.st3{fill:#f39800}.st4{fill:#ffd400}.st5{fill:green}.st6{fill:#afdfe4}.st7{fill:#0067bf}.st8{fill:#a757a8}</style><path d="M22 894H0v-8.1h5.4v-73.2H0v-8.1h22v8.1h-5.5v73.2H22v8.1zM140.8 821.5c-7.8-5.5-14-7.7-22.8-7.7-11.7 0-18.1 4.8-18.1 13.4 0 7.8 4.4 10.8 22.7 15.7 19 4.9 26.8 12.6 26.8 26.2 0 16.1-12.5 26-32.7 26-13 0-21.6-2.8-31.8-10.5l6.1-10.1c8.8 7.2 16.6 10.1 27 10.1 12.4 0 19.9-5.5 19.9-14.7 0-8.6-3.8-11.5-20.5-16-20.9-5.6-29.1-12.9-29.1-25.9 0-15.2 11.9-24.7 30.6-24.7 10.9 0 18.7 2.3 27.1 8.1l-5.2 10.1zM220.8 888.2c-6.8 5-12.8 7-20.9 7-9.8 0-18.4-3.4-23.6-9.3-4.8-5.6-7.8-14.9-7.8-24.8 0-21.3 12-34.2 31.6-34.2 8.6 0 13.3 1.7 20.4 7.6l-6.4 8.7c-5.1-4.7-9.3-6.5-15.1-6.5-12.5 0-19.4 8.6-19.4 24.3 0 15.8 7.1 24.3 20 24.3 6.1 0 10.8-1.8 15.7-5.7l5.5 8.6zM279.6 837.3c-1.4-.1-2.1-.1-3.3-.1-9.7 0-17.4 5.5-23 16.5V894h-10.5v-66h9.9v12.2c5.9-9.5 12.8-13.4 23.7-13.4 1.6 0 2.2 0 3.9.1l-.7 10.4zM306 863.9c.6 6.4 1.2 9 3 12.3 3.4 6 9.2 9.1 17.4 9.1 6.5 0 11.3-1.7 16.5-5.7l5.5 8.6c-7.2 5.1-13.2 7-22.4 7-19.8 0-31.1-12.3-31.1-34 0-21.4 10.9-34.3 29.1-34.3 12.4 0 20.8 6.1 24.5 18.2 1.4 4.8 1.9 9.6 2.2 18.8H306zm33-9.7c-1.3-12.7-5.6-17.6-15.6-17.6s-15.1 5.3-17.1 17.6H339zM376.8 831.1c7.8-3 14.7-4.3 22.3-4.3 16.5 0 23.6 7.9 23.6 26.5V894h-9.9v-5.2c-5.5 4.5-11.2 6.3-19.2 6.3-14.6 0-23.2-7.8-23.2-21 0-14.7 11.4-21.9 34.5-21.9h7.3c-.3-11.5-3.9-15.5-13.6-15.5-6.8 0-12.7 1.5-19.4 4.8l-2.4-10.4zm35.4 30.6h-7.3c-16.6 0-23.5 3.5-23.5 12.2 0 7.3 4.6 11.3 13.3 11.3 6.5 0 12-1.9 17.6-6v-17.5zM459.3 833.1c5.9-4.5 11.1-6.2 18.3-6.2 9.2 0 14.3 2.6 18.2 9.3 7-6.5 14-9.3 22.4-9.3 14.8 0 21.8 9.3 21.8 28.3V894h-10.4v-38.6c0-13.4-3.7-18.7-13.1-18.7-7 0-12.1 2.6-17.4 8.8.6 3.2.8 6.3.8 9.8V894h-10.4v-38.8c0-13.2-3.9-18.4-13.1-18.4-6.5 0-11.4 2.3-16.4 7.4V894h-10.5v-66h9.9v5.1z"/><path class="st0" d="M592.5 894.6l-16.1-4.6 4.3-15.3 16.1 4.6-4.3 15.3zm23.3-86.2l-19 59.7-10.6-3 14.8-61 14.8 4.3z"/><g><defs><path id="SVGID_1_" d="M468.5 321.5c4.3 0 7.8-7.2 7.8-16s-3-16-6.7-16-13.4-4.8-21.7-10.8c0 0-14.5-10.5-7.9-20.5 6.4-9.6 13.3-37.9-4.3-53.8-19.2-17.3-42.5-9.6-23.4-36.5 19.2-26.9-51.1-55.8-59.6-113.4-8.5-57.6-59.6-59.6-85.2-50-25.5 9.7-25.5 27-23.4 42.4 2.1 15.3 12.8-23.1 38.4-25 25.5-2 27.7 25-4.2 51.9-32 26.9-38.3 25-72.4 46.1-34 21.2 0 57.7-12.8 63.5-40.5 19.2-27.7 44.2-25.5 67.3 1.9 20.5-5.2 26.7-5.2 26.7-7.6 6.7-15.9 12.2-18.4 12.2-2.6 0-4.6 7.2-4.6 16s3.6 16 7.9 16c4.3 0 10.5 7.9 13.7 17.5l38.6 116.1c3.2 9.7 5.8 17.6 5.7 17.6-.1 0-.2 7.2-.2 16s2.5 16 5.5 16c2.9 0 8 7.9 11.2 17.5l.4 1.2c3.2 9.7 8.5 25.4 11.7 35.1l68.2 205c3.2 9.7 8.4 9.7 11.7 0l68.1-205c3.2-9.7 8.5-25.5 11.7-35.1l.4-1.2c3.2-9.6 8.3-17.5 11.3-17.5s5.4-7.2 5.4-16-.1-16-.1-16c-.1 0 2.5-7.9 5.7-17.6L454.8 339c3.2-9.6 9.4-17.5 13.7-17.5"/></defs><clipPath id="SVGID_2_"><use xlink:href="#SVGID_1_" overflow="visible"/></clipPath><g class="st1"><path class="st2" d="M-92.1-13h800v114.3h-800z"/><path class="st3" d="M-92.1 101.3h800v114.3h-800z"/><path class="st4" d="M-92.1 215.6h800v114.3h-800z"/><path class="st5" d="M-92.1 329.9h800v114.3h-800z"/><path class="st6" d="M-92.1 444.1h800v114.3h-800z"/><path class="st7" d="M-92.1 558.4h800v114.3h-800z"/><path class="st8" d="M-92.1 672.7h800V787h-800z"/></g></g></svg>