<svg id="レイヤー_1" xmlns="http://www.w3.org/2000/svg" viewBox="0 0 500 743.6"><style>.st0{stroke:#FFF;stroke-miterlimit:10}.st0,.st1{fill:#FFF}</style><path class="st0" d="M379.8 267.7c3.5 0 6.3-5.7 6.3-12.7 0-7-2.4-12.7-5.3-12.7-3 0-10.8-3.8-17.4-8.6 0 0-11.6-8.3-6.4-16.3 5.1-7.6 10.7-30.1-3.4-42.7-15.4-13.8-34.2-7.7-18.8-29 15.4-21.3-41.1-44.3-47.9-90.1C280.1 9.9 239 8.4 218.5 16 198 23.6 198 37.4 199.7 49.6c1.7 12.2 10.3-18.3 30.8-19.8 20.5-1.6 22.2 19.8-3.4 41.2-25.7 21.4-30.8 19.9-58.2 36.6-27.4 16.8 0 45.8-10.3 50.4-32.5 15.2-22.3 35.1-20.5 53.4 1.5 16.3-4.1 21.2-4.1 21.2-6.1 5.3-12.7 9.7-14.8 9.7-2.1 0-3.7 5.7-3.7 12.7 0 7 2.9 12.7 6.3 12.7 3.5 0 8.4 6.3 11 13.9l31 92.2c2.6 7.7 4.6 14 4.6 14-.1 0-.1 5.7-.1 12.7 0 7 2 12.7 4.4 12.7 2.4 0 6.5 6.3 9 13.9l.3.9c2.6 7.7 6.8 20.2 9.4 27.9l54.7 162.8c2.6 7.7 6.8 7.7 9.4 0L310.2 456c2.6-7.7 6.8-20.2 9.4-27.9l.3-.9c2.6-7.7 6.6-13.9 9.1-13.9 2.4 0 4.3-5.7 4.3-12.7 0-7-.1-12.7-.1-12.7s2-6.3 4.6-14l31-92.2c2.6-7.7 7.5-14 11-14"/><path class="st1" d="M25.5 721.5H8.2v-6.3h4.3v-57H8.2v-6.3h17.3v6.3h-4.3v57h4.3v6.3zM119.2 665.1c-6.1-4.3-11.1-6-17.9-6-9.2 0-14.3 3.7-14.3 10.4 0 6.1 3.5 8.4 17.9 12.2 15 3.9 21.2 9.8 21.2 20.4 0 12.5-9.8 20.2-25.8 20.2-10.2 0-17-2.2-25.1-8.2l4.8-7.9c7 5.6 13.1 7.9 21.3 7.9 9.8 0 15.7-4.3 15.7-11.4 0-6.7-3-9-16.1-12.5C84.4 685.8 78 680.1 78 670c0-11.8 9.4-19.2 24.1-19.2 8.6 0 14.7 1.8 21.3 6.3l-4.2 8zM182.2 717c-5.4 3.9-10.1 5.4-16.5 5.4-7.7 0-14.5-2.6-18.6-7.2-3.8-4.3-6.2-11.6-6.2-19.3 0-16.6 9.5-26.6 24.9-26.6 6.8 0 10.4 1.3 16 5.9l-5 6.8c-4-3.7-7.3-5-11.9-5-9.9 0-15.3 6.7-15.3 18.9 0 12.3 5.6 19 15.8 19 4.8 0 8.5-1.4 12.4-4.4l4.4 6.5zM228.6 677.4c-1.1-.1-1.6-.1-2.6-.1-7.6 0-13.8 4.3-18.1 12.9v31.3h-8.3v-51.4h7.8v9.5c4.7-7.4 10.1-10.4 18.7-10.4 1.3 0 1.7 0 3 .1l-.5 8.1zM249.4 698c.4 5 1 7 2.4 9.6 2.7 4.7 7.2 7.1 13.8 7.1 5.1 0 8.9-1.3 13-4.4l4.3 6.7c-5.7 4-10.4 5.4-17.7 5.4-15.6 0-24.5-9.6-24.5-26.5 0-16.7 8.6-26.7 22.9-26.7 9.8 0 16.4 4.7 19.3 14.2 1.1 3.7 1.5 7.5 1.7 14.6h-35.2zm26-7.4c-1-9.9-4.4-13.7-12.3-13.7s-11.9 4.1-13.5 13.7h25.8zM305.2 672.6c6.2-2.4 11.6-3.4 17.6-3.4 13 0 18.6 6.2 18.6 20.7v31.6h-7.8v-4c-4.3 3.5-8.8 4.9-15.2 4.9-11.5 0-18.3-6-18.3-16.4 0-11.5 9-17 27.2-17h5.8c-.2-9-3-12.1-10.7-12.1-5.3 0-10 1.2-15.3 3.8l-1.9-8.1zm27.9 23.8h-5.8c-13.1 0-18.5 2.7-18.5 9.5 0 5.7 3.7 8.8 10.5 8.8 5.1 0 9.4-1.5 13.8-4.7v-13.6zM370.2 674.1c4.7-3.5 8.8-4.9 14.4-4.9 7.2 0 11.2 2 14.3 7.2 5.5-5 11-7.2 17.7-7.2 11.6 0 17.2 7.2 17.2 22v30.2h-8.2v-30.1c0-10.4-2.9-14.6-10.3-14.6-5.5 0-9.6 2-13.8 6.9.5 2.5.6 4.9.6 7.6v30.1H394v-30.2c0-10.2-3-14.4-10.4-14.4-5.2 0-9 1.8-12.9 5.8v38.8h-8.2v-51.4h7.8v4.2zM472.1 731.1l-13.5-3.8 3.6-12.7 13.5 3.8-3.6 12.7zm19.7-71.6l-15.9 49.6-8.9-2.5 12.4-50.6 12.4 3.5z"/></svg>