<svg id="レイヤー_1" xmlns="http://www.w3.org/2000/svg" xmlns:xlink="http://www.w3.org/1999/xlink" viewBox="0 0 615.8 777.9"><style>.st0{clip-path:url(#SVGID_2_)}.st1{fill:#ed3d3d}.st2{fill:#f39800}.st3{fill:#ffd400}.st4{fill:green}.st5{fill:#afdfe4}.st6{fill:#0067bf}.st7{fill:#a757a8}</style><defs><path id="SVGID_1_" d="M468.5 326c4.3 0 7.8-7.2 7.8-16s-3-16-6.7-16-13.4-4.8-21.7-10.8c0 0-14.5-10.5-7.9-20.5 6.4-9.6 13.3-37.9-4.3-53.8-19.2-17.3-42.5-9.6-23.4-36.5 19.2-26.9-51.1-55.8-59.6-113.4S293.1-.6 267.5 9C242 18.7 242 36 244.1 51.4c2.1 15.3 12.8-23.1 38.4-25 25.5-2 27.7 25-4.2 51.9-32 26.9-38.3 25-72.4 46.1-34 21.2 0 57.7-12.8 63.5-40.5 19.2-27.7 44.2-25.5 67.3 1.9 20.5-5.2 26.7-5.2 26.7-7.6 6.7-15.9 12.2-18.4 12.2-2.6 0-4.6 7.2-4.6 16s3.6 16 7.9 16c4.3 0 10.5 7.9 13.7 17.5l38.6 116.1c3.2 9.7 5.8 17.6 5.7 17.6s-.2 7.2-.2 16 2.5 16 5.5 16c2.9 0 8 7.9 11.2 17.5l.4 1.2c3.2 9.7 8.5 25.4 11.7 35.1l68.2 205c3.2 9.7 8.4 9.7 11.7 0l68.1-205c3.2-9.7 8.5-25.5 11.7-35.1l.4-1.2c3.2-9.6 8.3-17.5 11.3-17.5s5.4-7.2 5.4-16-.1-16-.1-16c-.1 0 2.5-7.9 5.7-17.6l38.5-116.2c3.2-9.6 9.4-17.5 13.7-17.5"/></defs><clipPath id="SVGID_2_"><use xlink:href="#SVGID_1_" overflow="visible"/></clipPath><g class="st0"><path class="st1" d="M-92-8.5h800v114.3H-92z"/><path class="st2" d="M-92 105.8h800v114.3H-92z"/><path class="st3" d="M-92 220.1h800v114.3H-92z"/><path class="st4" d="M-92 334.4h800v114.3H-92z"/><path class="st5" d="M-92 448.6h800v114.3H-92z"/><path class="st6" d="M-92 562.9h800v114.3H-92z"/><path class="st7" d="M-92 677.2h800v114.3H-92z"/></g></svg>