<?xml version="1.0" encoding="utf-8"?>
<!-- Generator: Adobe Illustrator 20.0.0, SVG Export Plug-In . SVG Version: 6.00 Build 0)  -->
<svg version="1.1" id="レイヤー_1" xmlns="http://www.w3.org/2000/svg" xmlns:xlink="http://www.w3.org/1999/xlink" x="0px"
	 y="0px" viewBox="0 0 615.8 777.9" style="enable-background:new 0 0 615.8 777.9;" xml:space="preserve">
<style type="text/css">
	.st0{clip-path:url(#SVGID_2_);}
	.st1{fill:#ED3D3D;}
	.st2{fill:#F39800;}
	.st3{fill:#FFD400;}
	.st4{fill:#008000;}
	.st5{fill:#AFDFE4;}
	.st6{fill:#0067BF;}
	.st7{fill:#A757A8;}
</style>
<g>
	<g>
		<g>
			<defs>
				<path id="SVGID_1_" d="M468.5,326c4.3,0,7.8-7.2,7.8-16s-3-16-6.7-16s-13.4-4.8-21.7-10.8c0,0-14.5-10.5-7.9-20.5
					c6.4-9.6,13.3-37.9-4.3-53.8c-19.2-17.3-42.5-9.6-23.4-36.5c19.2-26.9-51.1-55.8-59.6-113.4S293.1-0.6,267.5,9
					c-25.5,9.7-25.5,27-23.4,42.4c2.1,15.3,12.8-23.1,38.4-25c25.5-2,27.7,25-4.2,51.9c-32,26.9-38.3,25-72.4,46.1
					c-34,21.2,0,57.7-12.8,63.5c-40.5,19.2-27.7,44.2-25.5,67.3c1.9,20.5-5.2,26.7-5.2,26.7c-7.6,6.7-15.9,12.2-18.4,12.2
					c-2.6,0-4.6,7.2-4.6,16s3.6,16,7.9,16c4.3,0,10.5,7.9,13.7,17.5l38.6,116.1c3.2,9.7,5.8,17.6,5.7,17.6s-0.2,7.2-0.2,16
					s2.5,16,5.5,16c2.9,0,8,7.9,11.2,17.5l0.4,1.2c3.2,9.7,8.5,25.4,11.7,35.1l68.2,205c3.2,9.7,8.4,9.7,11.7,0l68.1-205
					c3.2-9.7,8.5-25.5,11.7-35.1l0.4-1.2c3.2-9.6,8.3-17.5,11.3-17.5s5.4-7.2,5.4-16s-0.1-16-0.1-16c-0.1,0,2.5-7.9,5.7-17.6
					l38.5-116.2C458,333.9,464.2,326,468.5,326"/>
			</defs>
			<clipPath id="SVGID_2_">
				<use xlink:href="#SVGID_1_"  style="overflow:visible;"/>
			</clipPath>
			<g class="st0">
				<rect x="-92" y="-8.5" class="st1" width="800" height="114.3"/>
				<rect x="-92" y="105.8" class="st2" width="800" height="114.3"/>
				<rect x="-92" y="220.1" class="st3" width="800" height="114.3"/>
				<rect x="-92" y="334.4" class="st4" width="800" height="114.3"/>
				<rect x="-92" y="448.6" class="st5" width="800" height="114.3"/>
				<rect x="-92" y="562.9" class="st6" width="800" height="114.3"/>
				<rect x="-92" y="677.2" class="st7" width="800" height="114.3"/>
			</g>
		</g>
	</g>
</g>
</svg>
