<?xml version="1.0" encoding="utf-8"?>
<!-- Generator: Adobe Illustrator 19.2.1, SVG Export Plug-In . SVG Version: 6.00 Build 0)  -->
<svg version="1.1" id="レイヤー_1" xmlns="http://www.w3.org/2000/svg" xmlns:xlink="http://www.w3.org/1999/xlink" x="0px"
	 y="0px" viewBox="0 0 800 800" style="enable-background:new 0 0 800 800;" xml:space="preserve">
<style type="text/css">
	.st0{fill:#FFFFFF;}
	.st1{display:none;}
	.st2{display:inline;}
	.st3{display:inline;fill:none;stroke:#000000;stroke-width:0.5;}
</style>
<path class="st0" d="M0,0v800h800V0H0z M562.3,334c-4.4,0-10.6,7.9-13.8,17.5l-39,115.9c-3.2,9.7-5.8,17.6-5.8,17.6
	c0,0,0.1,7.2,0.1,16c0,8.8-2.5,16-5.5,16c-3,0-8.2,7.9-11.4,17.5l-0.4,1.2c-3.3,9.7-8.6,25.4-11.8,35.1l-68.8,204.7
	c-3.3,9.7-8.6,9.7-11.8,0l-68.9-204.7c-3.2-9.7-8.5-25.4-11.8-35.1l-0.4-1.2c-3.2-9.6-8.4-17.5-11.3-17.5c-3,0-5.5-7.2-5.5-16
	c0-8.8,0.1-16,0.2-16c0,0-2.5-7.9-5.8-17.6l-39-115.9c-3.3-9.6-9.5-17.5-13.8-17.5c-4.4,0-8-7.2-8-16c0-8.8,2.1-16,4.7-16
	c2.6,0,10.9-5.5,18.6-12.2c0,0,7.1-6.2,5.2-26.7c-2.2-23.1-15.1-48,25.8-67.2c12.9-5.8-21.5-42.2,12.9-63.4
	c34.5-21.1,40.9-19.2,73.2-46.1c32.2-26.8,30.1-53.7,4.3-51.8c-25.8,1.9-36.6,40.3-38.8,25c-2.1-15.3-2.1-32.7,23.7-42.3
	c25.8-9.5,77.4-7.6,86.1,49.9c8.6,57.6,79.6,86.4,60.3,113.3c-19.4,26.9,4.2,19.2,23.6,36.5c17.7,15.8,10.7,44.2,4.3,53.7
	c-6.7,10,8,20.5,8,20.5c8.3,6,18.1,10.8,21.9,10.8c3.7,0,6.7,7.2,6.7,16C570.2,326.8,566.7,334,562.3,334z"/>
<g class="st1">
	<g class="st2">
		<path d="M114.1,907h-22v-8.1h5.4v-73.2h-5.4v-8.1h22v8.1h-5.5v73.2h5.5V907z"/>
		<path d="M232.9,834.5c-7.8-5.5-14-7.7-22.8-7.7c-11.7,0-18.1,4.8-18.1,13.4c0,7.8,4.4,10.8,22.7,15.7c19,4.9,26.8,12.6,26.8,26.2
			c0,16.1-12.5,26-32.7,26c-13,0-21.6-2.8-31.8-10.5l6.1-10.1c8.8,7.2,16.6,10.1,27,10.1c12.4,0,19.9-5.5,19.9-14.7
			c0-8.6-3.8-11.5-20.5-16c-20.9-5.6-29.1-12.9-29.1-25.9c0-15.2,11.9-24.7,30.6-24.7c10.9,0,18.7,2.3,27.1,8.1L232.9,834.5z"/>
		<path d="M312.9,901.2c-6.8,5-12.8,7-20.9,7c-9.8,0-18.4-3.4-23.6-9.3c-4.8-5.6-7.8-14.9-7.8-24.8c0-21.3,12-34.2,31.6-34.2
			c8.6,0,13.3,1.7,20.4,7.6l-6.4,8.7c-5.1-4.7-9.3-6.5-15.1-6.5c-12.5,0-19.4,8.6-19.4,24.3c0,15.8,7.1,24.3,20,24.3
			c6.1,0,10.8-1.8,15.7-5.7L312.9,901.2z"/>
		<path d="M371.7,850.3c-1.4-0.1-2.1-0.1-3.3-0.1c-9.7,0-17.4,5.5-23,16.5V907H335v-66h9.9v12.2c5.9-9.5,12.8-13.4,23.7-13.4
			c1.6,0,2.2,0,3.9,0.1L371.7,850.3z"/>
		<path d="M398.1,876.9c0.6,6.4,1.2,9,3,12.3c3.4,6,9.2,9.1,17.4,9.1c6.5,0,11.3-1.7,16.5-5.7l5.5,8.6c-7.2,5.1-13.2,7-22.4,7
			c-19.8,0-31.1-12.3-31.1-34c0-21.4,10.9-34.3,29.1-34.3c12.4,0,20.8,6.1,24.5,18.2c1.4,4.8,1.9,9.6,2.2,18.8H398.1z M431.1,867.2
			c-1.3-12.7-5.6-17.6-15.6-17.6c-10,0-15.1,5.3-17.1,17.6H431.1z"/>
		<path d="M468.8,844.1c7.8-3,14.7-4.3,22.3-4.3c16.5,0,23.6,7.9,23.6,26.5V907h-9.9v-5.2c-5.5,4.5-11.2,6.3-19.2,6.3
			c-14.6,0-23.2-7.8-23.2-21c0-14.7,11.4-21.9,34.5-21.9h7.3c-0.3-11.5-3.9-15.5-13.6-15.5c-6.8,0-12.7,1.5-19.4,4.8L468.8,844.1z
			 M504.3,874.7H497c-16.6,0-23.5,3.5-23.5,12.2c0,7.3,4.6,11.3,13.3,11.3c6.5,0,12-1.9,17.6-6V874.7z"/>
		<path d="M551.4,846.1c5.9-4.5,11.1-6.2,18.3-6.2c9.2,0,14.3,2.6,18.2,9.3c7-6.5,14-9.3,22.4-9.3c14.8,0,21.8,9.3,21.8,28.3V907
			h-10.4v-38.6c0-13.4-3.7-18.7-13.1-18.7c-7,0-12.1,2.6-17.4,8.8c0.6,3.2,0.8,6.3,0.8,9.8V907h-10.4v-38.8
			c0-13.2-3.9-18.4-13.1-18.4c-6.5,0-11.4,2.3-16.4,7.4V907h-10.5v-66h9.9V846.1z"/>
		<path d="M684.5,907.6l-16.1-4.6l4.3-15.3l16.1,4.6L684.5,907.6z M707.9,821.4l-19,59.7l-10.6-3l14.8-61L707.9,821.4z"/>
	</g>
	<path class="st3" d="M560.6,334.5c4.3,0,7.8-7.2,7.8-16c0-8.8-3-16-6.7-16c-3.7,0-13.4-4.8-21.7-10.8c0,0-14.5-10.5-7.9-20.5
		c6.4-9.6,13.3-37.9-4.3-53.8c-19.2-17.3-42.5-9.6-23.4-36.5c19.2-26.9-51.1-55.8-59.6-113.4c-8.5-57.6-59.6-59.6-85.2-50
		c-25.5,9.7-25.5,27-23.4,42.4c2.1,15.3,12.8-23.1,38.4-25c25.5-2,27.7,25-4.2,51.9c-32,26.9-38.3,25-72.4,46.1
		c-34,21.2,0,57.7-12.8,63.5c-40.5,19.2-27.7,44.2-25.5,67.3c1.9,20.5-5.2,26.7-5.2,26.7c-7.6,6.7-15.9,12.2-18.4,12.2
		c-2.6,0-4.6,7.2-4.6,16c0,8.8,3.6,16,7.9,16c4.3,0,10.5,7.9,13.7,17.5l38.6,116.1c3.2,9.7,5.8,17.6,5.7,17.6c-0.1,0-0.2,7.2-0.2,16
		c0,8.8,2.5,16,5.5,16c2.9,0,8,7.9,11.2,17.5l0.4,1.2c3.2,9.7,8.5,25.4,11.7,35.1l68.2,205c3.2,9.7,8.4,9.7,11.7,0l68.1-205
		c3.2-9.7,8.5-25.5,11.7-35.1l0.4-1.2c3.2-9.6,8.3-17.5,11.3-17.5c3,0,5.4-7.2,5.4-16c0-8.8-0.1-16-0.1-16c-0.1,0,2.5-7.9,5.7-17.6
		L546.9,352C550.1,342.4,556.3,334.5,560.6,334.5"/>
</g>
</svg>
