<?xml version="1.0" encoding="utf-8"?>
<!-- Generator: Adobe Illustrator 19.2.1, SVG Export Plug-In . SVG Version: 6.00 Build 0)  -->
<svg version="1.1" id="レイヤー_1" xmlns="http://www.w3.org/2000/svg" xmlns:xlink="http://www.w3.org/1999/xlink" x="0px"
	 y="0px" viewBox="0 0 500 743.6" style="enable-background:new 0 0 500 743.6;" xml:space="preserve">
<style type="text/css">
	.st0{fill:#FFFFFF;stroke:#FFFFFF;stroke-miterlimit:10;}
	.st1{fill:#FFFFFF;}
</style>
<image style="display:none;overflow:visible;" width="612" height="752" xlink:href="../../../../../../Users/kojiyamauchi/Desktop/スクリーンショット 2016-02-28 20.52.27.png"  transform="matrix(0.4835 0 0 0.4835 102.0399 189.9692)">
</image>
<g>
	<path class="st0" d="M379.8,267.7c3.5,0,6.3-5.7,6.3-12.7c0-7-2.4-12.7-5.3-12.7c-3,0-10.8-3.8-17.4-8.6c0,0-11.6-8.3-6.4-16.3
		c5.1-7.6,10.7-30.1-3.4-42.7c-15.4-13.8-34.2-7.7-18.8-29c15.4-21.3-41.1-44.3-47.9-90.1C280.1,9.9,239,8.4,218.5,16
		C198,23.6,198,37.4,199.7,49.6c1.7,12.2,10.3-18.3,30.8-19.8c20.5-1.6,22.2,19.8-3.4,41.2c-25.7,21.4-30.8,19.9-58.2,36.6
		c-27.4,16.8,0,45.8-10.3,50.4c-32.5,15.2-22.3,35.1-20.5,53.4c1.5,16.3-4.1,21.2-4.1,21.2c-6.1,5.3-12.7,9.7-14.8,9.7
		c-2.1,0-3.7,5.7-3.7,12.7c0,7,2.9,12.7,6.3,12.7c3.5,0,8.4,6.3,11,13.9l31,92.2c2.6,7.7,4.6,14,4.6,14c-0.1,0-0.1,5.7-0.1,12.7
		c0,7,2,12.7,4.4,12.7c2.4,0,6.5,6.3,9,13.9l0.3,0.9c2.6,7.7,6.8,20.2,9.4,27.9l54.7,162.8c2.6,7.7,6.8,7.7,9.4,0L310.2,456
		c2.6-7.7,6.8-20.2,9.4-27.9l0.3-0.9c2.6-7.7,6.6-13.9,9.1-13.9c2.4,0,4.3-5.7,4.3-12.7c0-7-0.1-12.7-0.1-12.7c0,0,2-6.3,4.6-14
		l31-92.2C371.4,274,376.3,267.7,379.8,267.7"/>
	<path class="st1" d="M25.5,721.5H8.2v-6.3h4.3v-57H8.2v-6.3h17.3v6.3h-4.3v57h4.3V721.5z"/>
	<path class="st1" d="M119.2,665.1c-6.1-4.3-11.1-6-17.9-6c-9.2,0-14.3,3.7-14.3,10.4c0,6.1,3.5,8.4,17.9,12.2
		c15,3.9,21.2,9.8,21.2,20.4c0,12.5-9.8,20.2-25.8,20.2c-10.2,0-17-2.2-25.1-8.2l4.8-7.9c7,5.6,13.1,7.9,21.3,7.9
		c9.8,0,15.7-4.3,15.7-11.4c0-6.7-3-9-16.1-12.5c-16.5-4.4-22.9-10.1-22.9-20.2c0-11.8,9.4-19.2,24.1-19.2c8.6,0,14.7,1.8,21.3,6.3
		L119.2,665.1z"/>
	<path class="st1" d="M182.2,717c-5.4,3.9-10.1,5.4-16.5,5.4c-7.7,0-14.5-2.6-18.6-7.2c-3.8-4.3-6.2-11.6-6.2-19.3
		c0-16.6,9.5-26.6,24.9-26.6c6.8,0,10.4,1.3,16,5.9l-5,6.8c-4-3.7-7.3-5-11.9-5c-9.9,0-15.3,6.7-15.3,18.9c0,12.3,5.6,19,15.8,19
		c4.8,0,8.5-1.4,12.4-4.4L182.2,717z"/>
	<path class="st1" d="M228.6,677.4c-1.1-0.1-1.6-0.1-2.6-0.1c-7.6,0-13.8,4.3-18.1,12.9v31.3h-8.3v-51.4h7.8v9.5
		c4.7-7.4,10.1-10.4,18.7-10.4c1.3,0,1.7,0,3,0.1L228.6,677.4z"/>
	<path class="st1" d="M249.4,698c0.4,5,1,7,2.4,9.6c2.7,4.7,7.2,7.1,13.8,7.1c5.1,0,8.9-1.3,13-4.4l4.3,6.7
		c-5.7,4-10.4,5.4-17.7,5.4c-15.6,0-24.5-9.6-24.5-26.5c0-16.7,8.6-26.7,22.9-26.7c9.8,0,16.4,4.7,19.3,14.2
		c1.1,3.7,1.5,7.5,1.7,14.6H249.4z M275.4,690.6c-1-9.9-4.4-13.7-12.3-13.7c-7.9,0-11.9,4.1-13.5,13.7H275.4z"/>
	<path class="st1" d="M305.2,672.6c6.2-2.4,11.6-3.4,17.6-3.4c13,0,18.6,6.2,18.6,20.7v31.6h-7.8v-4c-4.3,3.5-8.8,4.9-15.2,4.9
		c-11.5,0-18.3-6-18.3-16.4c0-11.5,9-17,27.2-17h5.8c-0.2-9-3-12.1-10.7-12.1c-5.3,0-10,1.2-15.3,3.8L305.2,672.6z M333.1,696.4
		h-5.8c-13.1,0-18.5,2.7-18.5,9.5c0,5.7,3.7,8.8,10.5,8.8c5.1,0,9.4-1.5,13.8-4.7V696.4z"/>
	<path class="st1" d="M370.2,674.1c4.7-3.5,8.8-4.9,14.4-4.9c7.2,0,11.2,2,14.3,7.2c5.5-5,11-7.2,17.7-7.2c11.6,0,17.2,7.2,17.2,22
		v30.2h-8.2v-30.1c0-10.4-2.9-14.6-10.3-14.6c-5.5,0-9.6,2-13.8,6.9c0.5,2.5,0.6,4.9,0.6,7.6v30.1H394v-30.2
		c0-10.2-3-14.4-10.4-14.4c-5.2,0-9,1.8-12.9,5.8v38.8h-8.2v-51.4h7.8V674.1z"/>
	<path class="st1" d="M472.1,731.1l-13.5-3.8l3.6-12.7l13.5,3.8L472.1,731.1z M491.8,659.5l-15.9,49.6l-8.9-2.5l12.4-50.6
		L491.8,659.5z"/>
</g>
</svg>
